<svg xmlns="http://www.w3.org/2000/svg" viewBox="0 0 486.67 433.89"><defs><style>.cls-1{fill:#f5f5f5;}.cls-2{fill:#e0e0e0;}.cls-3{fill:#f0f0f0;}.cls-4{fill:#fafafa;}.cls-5{fill:#ebebeb;}.cls-10,.cls-12,.cls-13,.cls-6,.cls-8{fill:#fff;}.cls-7{fill:#27debf;}.cls-8{opacity:0.6;}.cls-9{opacity:0.05;}.cls-10{opacity:0.75;}.cls-11{opacity:0.1;}.cls-12{opacity:0.85;}.cls-13{opacity:0.7;}.cls-14{fill:#455a64;}.cls-15{fill:#263238;}.cls-16{fill:#37474f;}.cls-17{opacity:0.5;}.cls-18{opacity:0.3;}.cls-19{opacity:0.15;}.cls-20{fill:#ffbda7;}.cls-21{fill:#f0997a;}.cls-22{fill:#ffa8a7;}.cls-23{fill:#f28f8f;}.cls-24{opacity:0.2;}.cls-25{opacity:0.35;}</style></defs><title>illustration</title><g id="Layer_2" data-name="Layer 2"><g id="Floor"><ellipse id="Floor-2" data-name="Floor" class="cls-1" cx="243.34" cy="300.22" rx="243.34" ry="133.67"/></g><g id="Shadows"><path id="Shadow" class="cls-2" d="M304.66,379.62,462,288.77c4.78-2.76,4.78-7.24,0-10l-63.92-36.9c-4.78-2.76-12.54-2.76-17.32,0L223.42,332.71c-4.78,2.76-4.78,7.24,0,10l63.92,36.91C292.12,382.38,299.88,382.38,304.66,379.62Z"/><path id="Shadow-2" data-name="Shadow" class="cls-2" d="M222.79,356.67l-48.91-32.88,32.22-18.6c4.78-2.76,4.78-7.24,0-10l-63.92-36.91c-4.78-2.76-12.54-2.76-17.32,0L32.51,311.61c-4.79,2.76-4.79,7.23,0,10l63.92,36.9c4.78,2.76,12.53,2.76,17.32,0L131.6,348.2l57.27,29.58c9.81,5.07,25,5,34-.2S231.82,363,222.79,356.67Z"/><path id="Shadow-3" data-name="Shadow" class="cls-2" d="M270.76,261.45l-60.84-35.11a9.55,9.55,0,0,0-8.65,0L150.71,255.7c-2.39,1.38-2.39,3.62,0,5l60.84,35.11a9.52,9.52,0,0,0,8.65,0l50.56-29.34C273.16,265.08,273.15,262.83,270.76,261.45Z"/></g><g id="Diplomas"><g id="Diploma"><g id="Window"><polygon class="cls-3" points="43.85 65.42 45.56 66.42 88.47 41.65 86.75 40.65 43.85 65.42"/><polygon class="cls-4" points="86.75 40.65 45.56 64.43 45.56 28.73 86.75 4.95 86.75 40.65"/><path class="cls-5" d="M90.18,1,43.85,27.74V69.39L90.18,42.64ZM88.47,41.64,45.56,66.42V28.73L88.47,4Z"/><polygon class="cls-2" points="88.47 41.65 86.75 40.65 86.75 4.95 88.47 3.96 88.47 41.65"/><polygon class="cls-1" points="90.18 0.99 88.47 0 42.13 26.75 43.85 27.74 90.18 0.99"/><polygon class="cls-2" points="42.13 26.75 43.85 27.74 43.85 69.39 42.13 68.4 42.13 26.75"/></g><path class="cls-2" d="M78.67,34.65c1.6-.92,2.9-.17,2.9,1.67a6.4,6.4,0,0,1-2.9,5c-1.6.93-2.89.18-2.89-1.67A6.41,6.41,0,0,1,78.67,34.65Z"/><path class="cls-2" d="M55.26,27.11l21.81-12.6c.61-.35,1.1-.07,1.1.63v.06a2.47,2.47,0,0,1-1.09,1.91L55.26,29.72c-.6.35-1.09.07-1.09-.63V29A2.43,2.43,0,0,1,55.26,27.11Z"/><path class="cls-3" d="M51.81,37,80.52,20.46c.61-.35,1.1-.19,1.1.36a2.2,2.2,0,0,1-1.1,1.62L51.79,39c-.61.35-1.09.19-1.09-.36A2.24,2.24,0,0,1,51.81,37Z"/><path class="cls-3" d="M51.81,41,80.52,24.42c.61-.35,1.1-.19,1.1.36a2.2,2.2,0,0,1-1.1,1.62L51.79,43c-.61.35-1.09.19-1.09-.37A2.24,2.24,0,0,1,51.81,41Z"/><path class="cls-3" d="M51.81,45,80.52,28.38c.61-.35,1.1-.19,1.1.36a2.2,2.2,0,0,1-1.1,1.62L51.79,47c-.61.35-1.09.18-1.09-.37A2.24,2.24,0,0,1,51.81,45Z"/><path class="cls-2" d="M73.52,43.13a1.79,1.79,0,0,1-.72.19c-.61,0-.55-.63-.54-1.06,0-.19-.26-.49-.4-.24-.37.67-.84,1.3-1.24,1.95-.25.4-.71,1.3-1.3,1.17-.25,0-.33-.31-.33-.64a3.18,3.18,0,0,0,.38-1.79c0-.19-.33-.41-.43-.16a5.58,5.58,0,0,0-.38,1.65,10.35,10.35,0,0,1-.92,1.38c-.2.26-.38.56-.6.81-.05,0-.15.21-.24.22s-.18-.08-.21-.22a1.53,1.53,0,0,1,.1-.59h0s0,0,0,0h0c0-.2-.25-.48-.35-.24a8.7,8.7,0,0,1-1.69,2.8.52.52,0,0,1-.11.1c0-.12,0-.23,0-.35a3,3,0,0,0-.14-.78c-.05-.12-.27-.32-.38-.15a13.57,13.57,0,0,1-1.91,2.64,3.83,3.83,0,0,1-.4.28c-.13-.07.07-.77.1-.87.07-.32.18-.62.28-.93a3.73,3.73,0,0,0,.23-.76c0-.23-.37-.6-.45-.28,0,.13-.14.45-.26.83A19.57,19.57,0,0,1,60,50.77a6.19,6.19,0,0,1-2.24,2.16c-.26.14-.73.34-1,.14s-.25-.56-.27-.81a7,7,0,0,1,.27-2,12.1,12.1,0,0,0,2.49-1.76,8.28,8.28,0,0,0,1.88-2.08c.26-.46.41-1.22-.21-1.48-.42-.18-1,.12-1.34.32a6.13,6.13,0,0,0-1.37,1.06,7.93,7.93,0,0,0-1.71,3.13c-.05.18-.12.42-.19.69a5.27,5.27,0,0,1-3.16.52c-.06,0-.09.13,0,.14a5.27,5.27,0,0,0,3.09-.29c-.27,1.2-.43,2.78.69,3.09s2.47-1.09,3.07-1.89a13.67,13.67,0,0,0,1.2-1.94,1.21,1.21,0,0,1,.1-.14c0,.55.11,1,.65.87s1.06-.88,1.37-1.3.54-.82.81-1.24c0,.5.14,1.07.62,1s.87-.93,1.1-1.27a10.2,10.2,0,0,0,.54-.9.57.57,0,0,0,.11.16c.4.43.87,0,1.13-.36s.77-1,1.12-1.53a1,1,0,0,0,.47.54c.61.29,1.19-.22,1.55-.67a14.08,14.08,0,0,0,1.15-1.86.86.86,0,0,0,.42.59,1.43,1.43,0,0,0,1.45-.1C73.91,43.44,73.72,43,73.52,43.13Zm-13.43,2.4c.28-.15.87-.39.91.09a1.71,1.71,0,0,1-.39.84,10.75,10.75,0,0,1-1.67,1.77,13.8,13.8,0,0,1-2.09,1.6A6.68,6.68,0,0,1,60.09,45.53Z"/></g><g id="Diploma-2" data-name="Diploma"><g id="Window-2" data-name="Window"><polygon class="cls-3" points="111.47 65.42 113.19 66.42 156.09 41.65 154.38 40.65 111.47 65.42"/><polygon class="cls-4" points="154.38 40.65 113.19 64.43 113.19 28.73 154.38 4.95 154.38 40.65"/><path class="cls-5" d="M157.81,1,111.47,27.74V69.39l46.34-26.75ZM156.1,41.64,113.19,66.42V28.73L156.1,4Z"/><polygon class="cls-2" points="156.09 41.65 154.38 40.65 154.38 4.95 156.09 3.96 156.09 41.65"/><polygon class="cls-1" points="157.81 0.99 156.1 0 109.76 26.75 111.47 27.74 157.81 0.99"/><polygon class="cls-2" points="109.76 26.75 111.47 27.74 111.47 69.39 109.76 68.4 109.76 26.75"/></g><path class="cls-2" d="M146.3,34.65c1.6-.92,2.9-.17,2.9,1.67a6.4,6.4,0,0,1-2.9,5c-1.6.93-2.9.18-2.9-1.67A6.42,6.42,0,0,1,146.3,34.65Z"/><path class="cls-2" d="M122.89,27.11l21.81-12.6c.61-.35,1.1-.07,1.1.63v.06a2.45,2.45,0,0,1-1.1,1.91L122.89,29.72c-.6.35-1.1.07-1.1-.63V29A2.44,2.44,0,0,1,122.89,27.11Z"/><path class="cls-3" d="M119.44,37l28.71-16.57c.6-.35,1.1-.19,1.1.36a2.22,2.22,0,0,1-1.1,1.62L119.42,39c-.61.35-1.1.19-1.09-.36A2.24,2.24,0,0,1,119.44,37Z"/><path class="cls-3" d="M119.44,41l28.71-16.57c.6-.35,1.1-.19,1.1.36a2.22,2.22,0,0,1-1.1,1.62L119.42,43c-.61.35-1.1.19-1.09-.37A2.24,2.24,0,0,1,119.44,41Z"/><path class="cls-3" d="M119.44,45l28.71-16.57c.6-.35,1.1-.19,1.1.36a2.22,2.22,0,0,1-1.1,1.62L119.42,47c-.61.35-1.1.18-1.09-.37A2.24,2.24,0,0,1,119.44,45Z"/><path class="cls-2" d="M141.15,43.13a1.79,1.79,0,0,1-.72.19c-.61,0-.56-.63-.54-1.06,0-.19-.26-.49-.4-.24-.37.67-.85,1.3-1.25,1.95-.24.4-.71,1.3-1.3,1.17-.24,0-.32-.31-.32-.64a3.18,3.18,0,0,0,.38-1.79c0-.19-.34-.41-.43-.16a5.58,5.58,0,0,0-.38,1.65,11.41,11.41,0,0,1-.92,1.38c-.2.26-.38.56-.6.81,0,0-.15.21-.24.22s-.18-.08-.21-.22a1.53,1.53,0,0,1,.1-.59h0a.43.43,0,0,0,0,0h0c0-.2-.24-.48-.35-.24a8.68,8.68,0,0,1-1.68,2.8l-.11.1c0-.12,0-.23,0-.35a3.45,3.45,0,0,0-.14-.78c-.05-.12-.27-.32-.38-.15a13.57,13.57,0,0,1-1.91,2.64,3.83,3.83,0,0,1-.4.28c-.13-.07.07-.77.09-.87.08-.32.18-.62.29-.93a3.73,3.73,0,0,0,.23-.76c0-.23-.37-.6-.45-.28,0,.13-.14.45-.26.83a19.57,19.57,0,0,1-1.61,2.73,6.27,6.27,0,0,1-2.24,2.16c-.26.14-.74.34-1,.14s-.25-.56-.26-.81a7,7,0,0,1,.27-2,12.1,12.1,0,0,0,2.49-1.76,8.28,8.28,0,0,0,1.88-2.08c.26-.46.41-1.22-.21-1.48-.43-.18-1,.12-1.34.32a6.13,6.13,0,0,0-1.37,1.06,7.8,7.8,0,0,0-1.71,3.13l-.2.69a5.25,5.25,0,0,1-3.16.52s-.08.13,0,.14a5.27,5.27,0,0,0,3.09-.29c-.27,1.2-.43,2.78.69,3.09s2.47-1.09,3.07-1.89a13.67,13.67,0,0,0,1.2-1.94.61.61,0,0,1,.1-.14c0,.55.11,1,.65.87s1.06-.88,1.36-1.3.55-.82.82-1.24c.05.5.14,1.07.62,1s.87-.93,1.1-1.27a10.2,10.2,0,0,0,.54-.9.57.57,0,0,0,.11.16c.4.43.87,0,1.13-.36s.77-1,1.12-1.53a.93.93,0,0,0,.47.54c.61.29,1.19-.22,1.54-.67a13.16,13.16,0,0,0,1.16-1.86.86.86,0,0,0,.42.59,1.43,1.43,0,0,0,1.45-.1C141.53,43.44,141.35,43,141.15,43.13Zm-13.44,2.4c.29-.15.88-.39.91.09a1.61,1.61,0,0,1-.38.84,11.19,11.19,0,0,1-1.67,1.77,13.8,13.8,0,0,1-2.09,1.6A6.7,6.7,0,0,1,127.71,45.53Z"/></g></g><g id="Shelf"><g id="Shelf-2" data-name="Shelf"><g id="Shelf-3" data-name="Shelf"><path class="cls-3" d="M354.17,28.68v-4.2h0a1.41,1.41,0,0,1,.84-1.12L380.38,8.8a4.38,4.38,0,0,1,3.9,0L457.2,50.65a1.46,1.46,0,0,1,.84,1.12h0V56h0a1.47,1.47,0,0,1-.84,1.12L431.83,71.64a4.32,4.32,0,0,1-3.9,0L355,29.8a1.43,1.43,0,0,1-.84-1.12Z"/><path class="cls-4" d="M457.2,52.89,431.83,67.44a4.32,4.32,0,0,1-3.9,0L355,25.6a1.18,1.18,0,0,1,0-2.24L380.38,8.8a4.38,4.38,0,0,1,3.9,0L457.2,50.65A1.18,1.18,0,0,1,457.2,52.89Z"/><path class="cls-2" d="M429.89,67.91v4.2a4,4,0,0,0,1.94-.47L457.2,57.09A1.43,1.43,0,0,0,458,56h0v-4.2h0a1.05,1.05,0,0,0-.16-.47c.29.54.07,1.16-.68,1.59L431.83,67.44A3.85,3.85,0,0,1,429.89,67.91Z"/></g><g id="Book"><polygon class="cls-2" points="416.26 32.41 394.77 44.66 359.27 24.29 380.76 12.03 416.26 32.41"/><path class="cls-6" d="M394.52,43.73l20.73-11.9a8.55,8.55,0,0,1,.12-5.37l-20.6,11.77A20.66,20.66,0,0,0,394.52,43.73Z"/><path class="cls-5" d="M395.83,36.55a4.36,4.36,0,0,0-2,3.43v4c0,1.26.89,1.78,2,1.14L416.26,33.4v-1L396.1,43.9c-.66.38-1.19.07-1.19-.68l0-3.72a2.62,2.62,0,0,1,1.19-2L416.26,26V24.82Z"/><path class="cls-4" d="M416.26,24.82,380.76,4.45,360.33,16.17a4.37,4.37,0,0,0-2,3.43v4a1.42,1.42,0,0,0,.59,1.28l35.5,20.37a1.38,1.38,0,0,1-.58-1.28V40a4.37,4.37,0,0,1,2-3.42Z"/><path class="cls-3" d="M394.42,38a4,4,0,0,0-.59,1.95v4a1.38,1.38,0,0,0,.58,1.28l-35.5-20.37a1.42,1.42,0,0,1-.59-1.28v-4a4,4,0,0,1,.58-2Z"/></g><g id="Book-2" data-name="Book"><polygon class="cls-5" points="438.11 1.92 438.31 4.63 414.32 17.5 413.78 15.92 438.11 1.92"/><polygon class="cls-6" points="414.1 16.55 437.34 3.13 441.38 5.47 417.68 19.33 414.1 16.55"/><path class="cls-2" d="M422,17.89l2.3,26.94a1.89,1.89,0,0,1-.86,1.49L410,54.12a1.69,1.69,0,0,1-.7.2l8.38-34.11a1.73,1.73,0,0,0,.7-.2l1-.56Z"/><path class="cls-3" d="M416.66,20,414.25,18l-1.76-1.51c-.18-.29-.39-.5-.28-.74l-8.27,33.87v0c-.12.24-.15.77.18.95l4.17,3.57a1.82,1.82,0,0,0,1,.2l8.38-34.11A1.82,1.82,0,0,1,416.66,20Z"/><path class="cls-4" d="M412.49,15.45c-.48.27-.36.58,0,1L416.66,20a1.87,1.87,0,0,0,1.72,0L422,17.89c.48-.27.56-.67.19-.88a1.68,1.68,0,0,0-1.53.11l-2.9,1.67a.64.64,0,0,1-.57,0l-3.05-2.65a.17.17,0,0,1,0-.33L438.11,1.92,437,1.26Z"/></g><g id="Book-3" data-name="Book"><polygon class="cls-5" points="445.03 3.22 422.17 16.43 422.17 59.92 445.03 46.71 445.03 3.22"/><path class="cls-6" d="M422.91,17.15,445,4.45a9.3,9.3,0,0,0,5.06,2.77L428.16,19.86S426.74,19.53,422.91,17.15Z"/><path class="cls-4" d="M430.28,19.78a4.68,4.68,0,0,1-4.25,0l-3.73-2.13a1.29,1.29,0,0,1,0-2.44L444.11,2.69l.92.53L423.59,15.6c-.71.41-.71,1.06,0,1.47l3.46,2a2.83,2.83,0,0,0,2.55,0L451,6.67l1,.6Z"/><path class="cls-5" d="M452.09,7.27V50.76L430.28,63.27a4.68,4.68,0,0,1-4.25,0l-3.73-2.13a1.5,1.5,0,0,1-.88-1.22V16.42a1.48,1.48,0,0,0,.88,1.22L426,19.79a4.74,4.74,0,0,0,4.25,0Z"/><path class="cls-3" d="M428.16,20.29a4.47,4.47,0,0,1-2.13-.5l-3.73-2.15a1.48,1.48,0,0,1-.88-1.22v43.5a1.5,1.5,0,0,0,.88,1.22L426,63.27a4.36,4.36,0,0,0,2.13.51Z"/></g></g></g><g id="Side_Table" data-name="Side Table"><g id="Side_Table-2" data-name="Side Table"><g id="Side_table-3" data-name="Side table"><polygon class="cls-7" points="258.93 267.92 250.69 263.16 258.93 260.78 258.93 267.92"/><polygon class="cls-8" points="258.93 267.92 250.69 263.16 258.93 260.78 258.93 267.92"/><polygon class="cls-9" points="258.93 267.92 250.69 263.16 258.93 260.78 258.93 267.92"/><polygon class="cls-7" points="258.93 267.92 263.05 265.54 263.05 258.4 258.93 260.78 258.93 267.92"/><polygon class="cls-10" points="258.93 267.92 263.05 265.54 263.05 258.4 258.93 260.78 258.93 267.92"/><polygon class="cls-7" points="217.63 284.63 217.63 292.22 157.96 257.79 157.96 250.2 217.63 284.63"/><polygon class="cls-8" points="217.63 284.63 217.63 292.22 157.96 257.79 157.96 250.2 217.63 284.63"/><polygon class="cls-11" points="217.63 284.63 217.63 292.22 157.96 257.79 157.96 250.2 217.63 284.63"/><polygon class="cls-7" points="217.63 292.22 221.75 289.84 221.75 282.25 217.63 284.63 217.63 292.22"/><polygon class="cls-10" points="217.63 292.22 221.75 289.84 221.75 282.25 217.63 284.63 217.63 292.22"/><polygon class="cls-7" points="153.84 190.68 213.5 225.11 213.5 287.01 153.84 252.58 153.84 190.68"/><polygon class="cls-8" points="153.84 190.68 213.5 225.11 213.5 287.01 153.84 252.58 153.84 190.68"/><polygon class="cls-7" points="213.5 225.11 267.18 194.12 267.18 256.02 213.5 287.01 213.5 225.11"/><polygon class="cls-10" points="213.5 225.11 267.18 194.12 267.18 256.02 213.5 287.01 213.5 225.11"/><polygon class="cls-7" points="267.18 194.12 207.51 159.69 153.84 190.68 213.5 225.11 267.18 194.12"/><polygon class="cls-12" points="267.18 194.12 207.51 159.69 153.84 190.68 213.5 225.11 267.18 194.12"/><polygon class="cls-7" points="217.63 246.54 263.06 220.31 263.06 253.64 217.63 279.87 217.63 246.54"/><polygon class="cls-13" points="217.63 246.54 263.06 220.31 263.06 253.64 217.63 279.87 217.63 246.54"/><polygon class="cls-11" points="263.06 253.64 234.39 236.86 217.63 246.54 217.63 279.87 263.06 253.64"/><polygon class="cls-9" points="263.06 253.64 234.39 236.86 263.06 220.31 263.06 253.64"/><polygon class="cls-7" points="217.63 227.49 263.06 201.26 263.06 215.55 217.63 241.78 217.63 227.49"/><polygon class="cls-12" points="217.63 227.49 263.06 201.26 263.06 215.55 217.63 241.78 217.63 227.49"/><path class="cls-14" d="M231.71,222.37c0,.66,2,.06,4.39-1.34l7.7-4.45c2.43-1.4,4.4-3.07,4.4-3.73v-1.19l-16.49,9.52Z"/></g><g id="Plant"><g id="Shadow-4" data-name="Shadow"><path class="cls-11" d="M217.5,183c5,2.91,5,7.62,0,10.53s-13.2,2.9-18.24,0-5-7.62,0-10.53S212.46,180.1,217.5,183Z"/></g><g id="Pot"><path class="cls-5" d="M215.73,188.69c4.07-4.15,6.46-14.51,2.49-17.8H198c-4,3.29-1.58,13.65,2.48,17.8l.12.11a.93.93,0,0,0,.14.14l.36.33.1.07.31.24c.17.12.35.23.52.33a13.41,13.41,0,0,0,12.12,0h0c.17-.1.35-.21.53-.34l.28-.21.12-.1c.13-.1.24-.21.36-.31l.16-.16Z"/><path class="cls-4" d="M199.79,169.57c-4.6,2.66-4.6,7,0,9.62s12.07,2.66,16.68,0,4.6-7,0-9.62S204.4,166.91,199.79,169.57Z"/><path class="cls-5" d="M203.06,171.45c-2.8,1.62-2.8,4.24,0,5.86a11.19,11.19,0,0,0,10.14,0c2.8-1.62,2.8-4.24,0-5.86A11.25,11.25,0,0,0,203.06,171.45Z"/><path class="cls-14" d="M213.2,174.23a11.19,11.19,0,0,0-10.14,0,4.62,4.62,0,0,0-1.68,1.54,4.62,4.62,0,0,0,1.68,1.54,11.19,11.19,0,0,0,10.14,0,4.7,4.7,0,0,0,1.68-1.54A4.7,4.7,0,0,0,213.2,174.23Z"/><path class="cls-7" d="M208.45,176.52a13.35,13.35,0,0,0,11.8-7c4.31-7.85-.86-16.7-.86-16.7a13,13,0,0,1-5.28,3.56c-3.76,1.56-7.26,4.11-8,9.58A15.15,15.15,0,0,0,208.45,176.52Z"/><path class="cls-11" d="M208.45,176.52a13.35,13.35,0,0,0,11.8-7c4.31-7.85-.86-16.7-.86-16.7a13,13,0,0,1-5.28,3.56c-3.76,1.56-7.26,4.11-8,9.58A15.15,15.15,0,0,0,208.45,176.52Z"/><path class="cls-11" d="M219.39,152.84a13,13,0,0,1-5.28,3.56c-3.76,1.56-7.26,4.11-8,9.58a15.15,15.15,0,0,0,2.3,10.54C221.15,167.27,220.38,157.47,219.39,152.84Z"/><path class="cls-4" d="M219.8,155.51a14.86,14.86,0,0,1,0,5.64,19.91,19.91,0,0,1-1.78,5.4,21.46,21.46,0,0,1-3.19,4.71,22.72,22.72,0,0,1-4.3,3.66,37.6,37.6,0,0,0,3.86-4,27.86,27.86,0,0,0,3-4.67,25,25,0,0,0,1.89-5.19A19.64,19.64,0,0,0,219.8,155.51Z"/><path class="cls-4" d="M214.79,159.5a8.8,8.8,0,0,1,2.61,3.18,4.91,4.91,0,0,1,.66,2,3.23,3.23,0,0,1-.56,2.07l-.1,0c-.1-.71-.19-1.31-.33-1.92s-.2-1.23-.4-1.85a10.11,10.11,0,0,0-.8-1.78,8.61,8.61,0,0,0-1.14-1.62Z"/><path class="cls-7" d="M208.45,176.52s-8.26-.6-11.41-6.3c-3.31-6,.78-11.11-1.55-16.95,0,0,10.81,1.16,14.64,7.12C214.52,167.22,211.73,172.57,208.45,176.52Z"/><path class="cls-11" d="M210.13,160.39c-3.83-6-14.64-7.12-14.64-7.12,2.69,1.08,13.31,12.34,13,23.25C211.73,172.57,214.52,167.22,210.13,160.39Z"/><path class="cls-4" d="M196.93,154.21a24,24,0,0,1,4.58,4.32,35.77,35.77,0,0,1,3.56,5.21,32.37,32.37,0,0,1,2.51,5.8,17,17,0,0,1,.87,6.23,21.89,21.89,0,0,0-1.42-6,37.8,37.8,0,0,0-2.61-5.63,44.14,44.14,0,0,0-3.36-5.22A36.51,36.51,0,0,0,196.93,154.21Z"/><path class="cls-4" d="M199.06,164.45a12.88,12.88,0,0,1,3.62-.11,5.65,5.65,0,0,1,1.81.4,3.5,3.5,0,0,1,1.43,1.24l0,.09c-.65-.11-1.18-.25-1.73-.39s-1-.4-1.61-.55a18.1,18.1,0,0,0-3.47-.58Z"/></g></g></g></g><g id="Divan"><g id="Divan-2" data-name="Divan"><path class="cls-4" d="M301.7,363.51H290.31l1.82,11.11h0a2.07,2.07,0,0,0,1.11,1.37,6.08,6.08,0,0,0,5.51,0,2,2,0,0,0,1.1-1.37h0Z"/><path class="cls-4" d="M242.4,328.33H231l1.82,11.11h0a2.06,2.06,0,0,0,1.1,1.38,6.14,6.14,0,0,0,5.51,0,2.06,2.06,0,0,0,1.1-1.38h0Z"/><path class="cls-4" d="M454.42,275.32H443l1.82,11.11h0a2,2,0,0,0,1.1,1.37,6.08,6.08,0,0,0,5.51,0,2,2,0,0,0,1.1-1.37h0Z"/><path class="cls-4" d="M395.12,240.14H383.73l1.82,11.11h0a2.06,2.06,0,0,0,1.1,1.38,6.14,6.14,0,0,0,5.51,0,2.08,2.08,0,0,0,1.11-1.38h0Z"/><path class="cls-14" d="M387.4,205.21l-2,1.17-17.81,30.31a22.07,22.07,0,0,1-6.84,6.83L231.28,318.26a3.07,3.07,0,0,0-1.8,2.45c0,.92,0,6.49,0,7.39a3,3,0,0,0,1.79,2.53l60.39,34.87a9.57,9.57,0,0,0,8.66,0l153.33-88.61a9.58,9.58,0,0,0,4.33-7.5V248.62a9.58,9.58,0,0,0-4.33-7.5l-59.9-34.58C391.37,205.15,388.52,204.56,387.4,205.21Z"/><path class="cls-15" d="M451.69,250.44l-15.08,26.12a22,22,0,0,1-6.83,6.83L300.33,358.12a9.51,9.51,0,0,1-8.66,0l-60.39-34.86c-2.39-1.39-2.39-3.62,0-5l129.44-74.74a22.07,22.07,0,0,0,6.84-6.83l15.27-26a5.05,5.05,0,0,1,6.87-1.81l60.16,34.73A5,5,0,0,1,451.69,250.44Z"/><path class="cls-16" d="M296,359.17v7.37a8.83,8.83,0,0,1-4.33-1l-60.4-34.86a3,3,0,0,1-1.78-2.54c0-.87,0-6.28,0-7.34a3,3,0,0,0,1.79,2.5l60.4,34.87A8.86,8.86,0,0,0,296,359.17Z"/><path class="cls-7" d="M227,298.15v13.46a9.58,9.58,0,0,0,4.33,7.5L291.67,354a9.51,9.51,0,0,0,8.66,0L426,281.43a22.68,22.68,0,0,0,6.89-6.8l37.53-62.94A21.43,21.43,0,0,0,473,202.4V186.6a9.58,9.58,0,0,0-4.33-7.5l-60.4-34.87a5,5,0,0,0-6.83,1.83l-16,32.23-21.7,33a31.34,31.34,0,0,1-4.55,5.51L233.56,289.34C228.89,292,227,295.39,227,298.15Z"/><path class="cls-17" d="M227,298.15v13.46a9.58,9.58,0,0,0,4.33,7.5L291.67,354a9.51,9.51,0,0,0,8.66,0L426,281.43a22.68,22.68,0,0,0,6.89-6.8l37.53-62.94A21.43,21.43,0,0,0,473,202.4V186.6a9.58,9.58,0,0,0-4.33-7.5l-60.4-34.87a5,5,0,0,0-6.83,1.83l-16,32.23-21.7,33a31.34,31.34,0,0,1-4.55,5.51L233.56,289.34C228.89,292,227,295.39,227,298.15Z"/><path class="cls-11" d="M296,331.57V355a8.83,8.83,0,0,1-4.33-1l-60.4-34.87a9.58,9.58,0,0,1-4.33-7.5V298.16a9.69,9.69,0,0,1,3.89-7.22c-1.94,1.39-1.79,3.43.44,4.72l60.4,34.87A8.86,8.86,0,0,0,296,331.57Z"/><path class="cls-7" d="M408.24,144.23l60.4,34.87a5,5,0,0,1,1.83,6.83l-37.65,65.22A22,22,0,0,1,426,258L300.33,330.52a9.57,9.57,0,0,1-8.66,0l-60.39-34.87c-2.39-1.38-2.39-3.62,0-5,8.45-9.12,20.33-16.53,32.23-18.6,9.84-10.74,19.56-15.86,32.49-18.76,8.66-11.34,19.67-17.67,32.5-18.77a50.12,50.12,0,0,1,28.43-16.41,22,22,0,0,0,6.83-6.83c4.13-13.57,9.42-23.66,21.7-33,2.53-11.94,6.89-24.16,16-32.23A5,5,0,0,1,408.24,144.23Z"/><path class="cls-18" d="M408.24,144.23l60.4,34.87a5,5,0,0,1,1.83,6.83l-37.65,65.22A22,22,0,0,1,426,258L300.33,330.52a9.57,9.57,0,0,1-8.66,0l-60.39-34.87c-2.39-1.38-2.39-3.62,0-5,8.45-9.12,20.33-16.53,32.23-18.6,9.84-10.74,19.56-15.86,32.49-18.76,8.66-11.34,19.67-17.67,32.5-18.77a50.12,50.12,0,0,1,28.43-16.41,22,22,0,0,0,6.83-6.83c4.13-13.57,9.42-23.66,21.7-33,2.53-11.94,6.89-24.16,16-32.23A5,5,0,0,1,408.24,144.23Z"/><path class="cls-11" d="M468.64,179.1l-60.4-34.87a5,5,0,0,0-6.83,1.83c-9.06,8.07-13.42,20.29-16,32.23-12.28,9.33-17.57,19.42-21.7,33a20.2,20.2,0,0,1-3.37,4.11h0l69,39.86a20.61,20.61,0,0,0,3.38-4.11l37.65-65.22A5,5,0,0,0,468.64,179.1Z"/><path class="cls-19" d="M418.53,175.82c-2-.55-4.08-1-5.66-2.47a6.77,6.77,0,0,1-1.17-1.44,5.09,5.09,0,0,0-.86-1.35.74.74,0,0,0-.41-.13,7.6,7.6,0,0,1,1.5-3.91,12.77,12.77,0,0,1,1.36-1.83c.45-.47,1-.89,1.4-1.4.08-.1,0-.35-.12-.34a3.7,3.7,0,0,0-2.07,1.19,11.41,11.41,0,0,0-1.95,2.37,9.52,9.52,0,0,0-1,2.21,5,5,0,0,0-.21,1,3.32,3.32,0,0,0,0,.53,1.74,1.74,0,0,0-.65-.26,12.61,12.61,0,0,1-3.5-1.6c-1.68-1.1-3.36-2.54-3.93-4.54,0-.08-.11,0-.1.09a8.23,8.23,0,0,0,.84,2.12,8.32,8.32,0,0,0,1.38,1.9,12.44,12.44,0,0,0,3.81,2.41,9.58,9.58,0,0,0,1.34.45,6.61,6.61,0,0,0-2.51,2.92,8.54,8.54,0,0,0-.77,5.28c0,.09.09,0,.1,0a18.58,18.58,0,0,1,.44-2.32,12.11,12.11,0,0,1,.93-2.38,6.24,6.24,0,0,1,2.93-3,.35.35,0,0,0,.25-.43h0a.41.41,0,0,0,.22,0,3.83,3.83,0,0,0,.74,1.43,8.85,8.85,0,0,0,1.54,1.69,8.57,8.57,0,0,0,2.49,1.47,10.22,10.22,0,0,0,1.81.46,6.39,6.39,0,0,0,1.8,0C418.57,176,418.59,175.84,418.53,175.82Z"/><path class="cls-16" d="M411.17,172.06a2.65,2.65,0,1,0-3.41.65A2.46,2.46,0,0,0,411.17,172.06Z"/><path class="cls-19" d="M335.49,249.55a10.83,10.83,0,0,1,4.8-3.45,12.89,12.89,0,0,1,2.18-.49,9.47,9.47,0,0,0,2-.27.59.59,0,0,0,.28-.26,13.33,13.33,0,0,1,4.64,2,17.2,17.2,0,0,1,2,1.43,18.24,18.24,0,0,0,1.41,1.36c.11.08.45.11.48,0,.14-.59-.43-1.25-1-1.78a12.31,12.31,0,0,0-2.52-2,15.11,15.11,0,0,0-2.58-1.27,9.78,9.78,0,0,0-1.26-.41,6.63,6.63,0,0,0-.69-.15,1.42,1.42,0,0,0,.53-.4,11.1,11.1,0,0,1,3.06-2.11,14.48,14.48,0,0,1,7-1.69c.12,0,0-.09-.08-.09a17.36,17.36,0,0,0-3,.07,14.12,14.12,0,0,0-2.85.52,13.74,13.74,0,0,0-4.19,2.13,7.19,7.19,0,0,0-1,.85,7.23,7.23,0,0,0-3.08-2.54,17.83,17.83,0,0,0-6.62-1.87c-.12,0-.08.06,0,.08,1,.28,1.95.54,2.88.89a20.77,20.77,0,0,1,2.82,1.27c1.4.78,2.69,1.76,3,2.84a.49.49,0,0,0,.48.29h0a.28.28,0,0,0,0,.18,8,8,0,0,0-2.06.17,14.66,14.66,0,0,0-2.63.68A9.11,9.11,0,0,0,337,247a6.49,6.49,0,0,0-1.11,1.19,2.86,2.86,0,0,0-.54,1.29S335.45,249.58,335.49,249.55Z"/><path class="cls-16" d="M342.43,245.2a5.07,5.07,0,0,0,4.57,0c1.29-.72,1.34-1.89.11-2.62a5.08,5.08,0,0,0-4.56,0C341.25,243.31,341.2,244.48,342.43,245.2Z"/><path class="cls-19" d="M369.79,269.35a10.91,10.91,0,0,1,4.8-3.45,12.11,12.11,0,0,1,2.19-.48,10.16,10.16,0,0,0,2-.28.55.55,0,0,0,.28-.26,13.52,13.52,0,0,1,4.64,2.05,16.13,16.13,0,0,1,2,1.44,18.3,18.3,0,0,0,1.42,1.35c.1.09.44.12.47,0,.15-.59-.43-1.25-.95-1.78a13.42,13.42,0,0,0-2.53-2,16.74,16.74,0,0,0-2.58-1.27,11.6,11.6,0,0,0-1.26-.4,4.77,4.77,0,0,0-.69-.15,1.44,1.44,0,0,0,.53-.41,11.25,11.25,0,0,1,3.06-2.11,14.6,14.6,0,0,1,7-1.69c.12,0,0-.08-.08-.09a18.38,18.38,0,0,0-3,.07,15.77,15.77,0,0,0-2.86.52,13.79,13.79,0,0,0-4.18,2.13,6.13,6.13,0,0,0-1,.85,7.34,7.34,0,0,0-3.08-2.53,17.89,17.89,0,0,0-6.63-1.88c-.11,0-.07.06,0,.08,1,.28,1.94.55,2.87.89a20.89,20.89,0,0,1,2.82,1.27c1.4.78,2.69,1.76,3,2.85.05.19.25.27.47.28v0a.2.2,0,0,0,0,.17,8.11,8.11,0,0,0-2.06.18,14.66,14.66,0,0,0-2.63.68,9.25,9.25,0,0,0-2.59,1.42,6.44,6.44,0,0,0-1.11,1.18,2.9,2.9,0,0,0-.54,1.29S369.76,269.39,369.79,269.35Z"/><path class="cls-16" d="M376.74,265a5.08,5.08,0,0,0,4.56,0c1.3-.72,1.35-1.89.11-2.61a5.08,5.08,0,0,0-4.56,0C375.56,263.11,375.51,264.28,376.74,265Z"/><path class="cls-19" d="M303,268.31a10.89,10.89,0,0,1,4.8-3.45,12.11,12.11,0,0,1,2.19-.48,10,10,0,0,0,2-.28.57.57,0,0,0,.29-.26,13.55,13.55,0,0,1,4.63,2.05,15.41,15.41,0,0,1,2,1.44c.49.44.87.94,1.42,1.35.1.08.44.12.47,0,.15-.59-.43-1.25-.95-1.78a12.87,12.87,0,0,0-2.52-2,16.41,16.41,0,0,0-2.59-1.27c-.4-.15-.82-.29-1.25-.41l-.69-.15a1.36,1.36,0,0,0,.52-.4,11.25,11.25,0,0,1,3.06-2.11,14.6,14.6,0,0,1,7-1.69c.12,0,0-.09-.08-.09a17.34,17.34,0,0,0-3,.07,14.71,14.71,0,0,0-2.85.52,13.62,13.62,0,0,0-4.19,2.13,6.13,6.13,0,0,0-1,.85,7.35,7.35,0,0,0-3.08-2.54,18.08,18.08,0,0,0-6.62-1.87c-.12,0-.08.06,0,.08,1,.28,1.95.55,2.87.89a19.72,19.72,0,0,1,2.82,1.27c1.4.78,2.7,1.76,3,2.84a.48.48,0,0,0,.48.29v0a.2.2,0,0,0,0,.17,8.12,8.12,0,0,0-2.06.17,15.55,15.55,0,0,0-2.63.68,9.51,9.51,0,0,0-2.59,1.42,6.85,6.85,0,0,0-1.11,1.19,3,3,0,0,0-.54,1.29S303,268.34,303,268.31Z"/><path class="cls-16" d="M309.94,264a5.07,5.07,0,0,0,4.57,0c1.29-.72,1.34-1.89.11-2.61a5.07,5.07,0,0,0-4.57,0C308.76,262.07,308.71,263.24,309.94,264Z"/><path class="cls-19" d="M337.3,288.11a11,11,0,0,1,4.79-3.45,13.24,13.24,0,0,1,2.19-.48,9.36,9.36,0,0,0,2-.28.53.53,0,0,0,.29-.26,13.57,13.57,0,0,1,4.63,2.05,17.39,17.39,0,0,1,2,1.44c.48.44.86.94,1.41,1.36.11.08.45.11.48,0,.14-.58-.44-1.25-1-1.78a13.34,13.34,0,0,0-2.52-2,16.71,16.71,0,0,0-2.58-1.26,10.31,10.31,0,0,0-1.26-.41,5.08,5.08,0,0,0-.69-.15,1.42,1.42,0,0,0,.53-.41,11.19,11.19,0,0,1,3-2.11,14.72,14.72,0,0,1,7-1.69c.12,0,0-.08-.08-.09a18.44,18.44,0,0,0-3,.07,15.5,15.5,0,0,0-2.85.52,13.85,13.85,0,0,0-4.19,2.13,6.62,6.62,0,0,0-1,.85,7.21,7.21,0,0,0-3.08-2.53,17.9,17.9,0,0,0-6.62-1.88c-.12,0-.08.06,0,.09,1,.27,1.95.54,2.88.88a21.32,21.32,0,0,1,2.81,1.27c1.4.78,2.7,1.76,3,2.85a.48.48,0,0,0,.48.28v0a.33.33,0,0,0,0,.17,8.11,8.11,0,0,0-2.06.18,14.55,14.55,0,0,0-2.62.68,9.11,9.11,0,0,0-2.59,1.42,6.12,6.12,0,0,0-1.11,1.18,3,3,0,0,0-.55,1.29S337.26,288.15,337.3,288.11Z"/><path class="cls-16" d="M344.24,283.77a5.1,5.1,0,0,0,4.57,0c1.29-.72,1.34-1.89.11-2.61a5.1,5.1,0,0,0-4.57,0C343.06,281.88,343,283.05,344.24,283.77Z"/><path class="cls-19" d="M268.56,286a11.1,11.1,0,0,1,4.8-3.45,14.08,14.08,0,0,1,2.19-.48,10.07,10.07,0,0,0,2-.27.63.63,0,0,0,.29-.27,13.47,13.47,0,0,1,4.63,2.06,16.38,16.38,0,0,1,2,1.43c.49.44.87.94,1.42,1.36.11.08.44.11.47,0,.15-.58-.43-1.25-.95-1.78a13.67,13.67,0,0,0-2.52-2,16.39,16.39,0,0,0-2.59-1.26,10.16,10.16,0,0,0-1.25-.41c-.25-.06-.48-.12-.69-.15a1.38,1.38,0,0,0,.52-.41,11.25,11.25,0,0,1,3.06-2.11,14.6,14.6,0,0,1,7-1.68c.12,0,0-.09-.08-.1a18.41,18.41,0,0,0-3,.07A15.5,15.5,0,0,0,283,277a13.85,13.85,0,0,0-4.19,2.13,7.27,7.27,0,0,0-1,.85,7.34,7.34,0,0,0-3.08-2.53,18.09,18.09,0,0,0-6.62-1.88c-.12,0-.08.06,0,.09,1,.28,1.95.54,2.87.89a19.7,19.7,0,0,1,2.82,1.26c1.4.78,2.7,1.77,3,2.85a.48.48,0,0,0,.48.28v0a.25.25,0,0,0,0,.17,8.11,8.11,0,0,0-2.06.18,14.66,14.66,0,0,0-2.63.68,9.25,9.25,0,0,0-2.59,1.42,6.8,6.8,0,0,0-1.11,1.18,3.08,3.08,0,0,0-.54,1.29C268.37,286,268.53,286,268.56,286Z"/><path class="cls-16" d="M275.51,281.61a5.1,5.1,0,0,0,4.57,0c1.29-.72,1.34-1.89.11-2.61a5.1,5.1,0,0,0-4.57,0C274.33,279.72,274.28,280.89,275.51,281.61Z"/><path class="cls-19" d="M302.87,305.76a10.93,10.93,0,0,1,4.79-3.45,12.3,12.3,0,0,1,2.19-.48,10,10,0,0,0,2-.28.53.53,0,0,0,.29-.26,13.38,13.38,0,0,1,4.63,2,16.26,16.26,0,0,1,2,1.44,18.14,18.14,0,0,0,1.41,1.35c.11.08.45.12.48,0,.14-.59-.44-1.25-1-1.78a12.58,12.58,0,0,0-2.52-2,16.73,16.73,0,0,0-2.58-1.27c-.41-.15-.82-.29-1.26-.41l-.69-.15a1.32,1.32,0,0,0,.53-.4,11.19,11.19,0,0,1,3.05-2.11,14.63,14.63,0,0,1,7-1.69c.12,0,0-.09-.08-.09a17.36,17.36,0,0,0-3,.07,14.71,14.71,0,0,0-2.85.52A13.62,13.62,0,0,0,313.1,299a7.19,7.19,0,0,0-1,.85,7.3,7.3,0,0,0-3.08-2.54,18.08,18.08,0,0,0-6.62-1.87c-.12,0-.08.06,0,.08,1,.28,1.95.55,2.88.89a20.77,20.77,0,0,1,2.82,1.27c1.39.78,2.69,1.76,3,2.84a.49.49,0,0,0,.48.29v0a.32.32,0,0,0,0,.17,8.12,8.12,0,0,0-2.06.17,15.43,15.43,0,0,0-2.62.69,9.1,9.1,0,0,0-2.59,1.41,6.16,6.16,0,0,0-1.11,1.19,2.88,2.88,0,0,0-.55,1.29S302.83,305.79,302.87,305.76Z"/><path class="cls-16" d="M309.81,301.41a5.07,5.07,0,0,0,4.57,0c1.29-.72,1.34-1.89.11-2.61a5.07,5.07,0,0,0-4.57,0C308.63,299.52,308.58,300.69,309.81,301.41Z"/><path class="cls-19" d="M455.56,196.83c-2-.55-4.08-1-5.66-2.48a7.31,7.31,0,0,1-1.17-1.43,4.94,4.94,0,0,0-.86-1.35.77.77,0,0,0-.41-.14,7.6,7.6,0,0,1,1.5-3.9,14.32,14.32,0,0,1,1.36-1.84c.45-.47,1-.88,1.4-1.39.08-.1,0-.36-.12-.34a3.75,3.75,0,0,0-2.07,1.18,11.3,11.3,0,0,0-1.94,2.37,10,10,0,0,0-1,2.21,5.28,5.28,0,0,0-.21,1,2.53,2.53,0,0,0,0,.54,1.63,1.63,0,0,0-.66-.26,12.9,12.9,0,0,1-3.5-1.6,8.76,8.76,0,0,1-3.93-4.54c0-.09-.11,0-.1.08a8,8,0,0,0,.84,2.12,7.68,7.68,0,0,0,1.39,1.9,12,12,0,0,0,3.8,2.41,8.12,8.12,0,0,0,1.34.45,6.7,6.7,0,0,0-2.51,2.93,8.54,8.54,0,0,0-.77,5.28c0,.09.1,0,.11,0a16.35,16.35,0,0,1,.43-2.32,11.34,11.34,0,0,1,.94-2.38,6.26,6.26,0,0,1,2.93-3,.33.33,0,0,0,.24-.42h0a.78.78,0,0,0,.22,0,3.85,3.85,0,0,0,.75,1.43,9.1,9.1,0,0,0,1.53,1.69,8.32,8.32,0,0,0,2.49,1.46,9.45,9.45,0,0,0,1.81.47,6.1,6.1,0,0,0,1.81,0C455.6,197,455.62,196.84,455.56,196.83Z"/><path class="cls-16" d="M448.2,193.06a2.65,2.65,0,1,0-3.41.66A2.47,2.47,0,0,0,448.2,193.06Z"/><path class="cls-19" d="M399.84,206.92c-2-.55-4.09-1-5.67-2.47A7.09,7.09,0,0,1,393,203a5.09,5.09,0,0,0-.86-1.35.69.69,0,0,0-.41-.13,7.78,7.78,0,0,1,1.5-3.91,13.56,13.56,0,0,1,1.36-1.83c.45-.47,1-.89,1.4-1.4.08-.1,0-.35-.12-.34a3.7,3.7,0,0,0-2.07,1.19,11.05,11.05,0,0,0-1.94,2.37,10,10,0,0,0-1,2.21,5.77,5.77,0,0,0-.21,1,3.33,3.33,0,0,0,0,.54,1.65,1.65,0,0,0-.66-.27,12.14,12.14,0,0,1-3.49-1.6,8.7,8.7,0,0,1-3.94-4.54c0-.08-.11,0-.09.09a8.2,8.2,0,0,0,.83,2.12,8.36,8.36,0,0,0,1.39,1.9,12.21,12.21,0,0,0,3.8,2.41,10.54,10.54,0,0,0,1.34.45,6.67,6.67,0,0,0-2.51,2.92,8.57,8.57,0,0,0-.77,5.29c0,.08.1,0,.11,0a18.07,18.07,0,0,1,.43-2.31,11.42,11.42,0,0,1,.94-2.39,6.19,6.19,0,0,1,2.93-3,.35.35,0,0,0,.25-.43h0a.41.41,0,0,0,.22,0,4,4,0,0,0,.75,1.43,8.58,8.58,0,0,0,4,3.16A10.22,10.22,0,0,0,398,207a6.46,6.46,0,0,0,1.81,0C399.87,207.06,399.89,206.94,399.84,206.92Z"/><path class="cls-16" d="M392.48,203.16a2.66,2.66,0,1,0-3.41.65A2.48,2.48,0,0,0,392.48,203.16Z"/><path class="cls-19" d="M436.36,228.35c-2-.55-4.09-1-5.67-2.47a7.09,7.09,0,0,1-1.17-1.44,5.09,5.09,0,0,0-.86-1.35.69.69,0,0,0-.41-.13,7.69,7.69,0,0,1,1.5-3.91,13.56,13.56,0,0,1,1.36-1.83c.45-.47,1-.89,1.4-1.4.08-.1,0-.35-.12-.34a3.7,3.7,0,0,0-2.07,1.19,11.05,11.05,0,0,0-1.94,2.37,10,10,0,0,0-1,2.21,5.77,5.77,0,0,0-.21,1,3.25,3.25,0,0,0,0,.53,1.79,1.79,0,0,0-.66-.26,12.42,12.42,0,0,1-3.49-1.6,8.7,8.7,0,0,1-3.94-4.54c0-.08-.11,0-.09.09a8.2,8.2,0,0,0,.83,2.12,8.36,8.36,0,0,0,1.39,1.9,12.39,12.39,0,0,0,3.8,2.41,10.54,10.54,0,0,0,1.34.45,6.61,6.61,0,0,0-2.51,2.92,8.57,8.57,0,0,0-.77,5.29c0,.08.1,0,.11,0a18.55,18.55,0,0,1,.43-2.32,11.56,11.56,0,0,1,.94-2.38,6.19,6.19,0,0,1,2.93-3,.35.35,0,0,0,.25-.43h0a.41.41,0,0,0,.22,0,4,4,0,0,0,.75,1.43,8.88,8.88,0,0,0,1.54,1.7,8.72,8.72,0,0,0,2.48,1.46,10.22,10.22,0,0,0,1.81.46,6.46,6.46,0,0,0,1.81,0C436.39,228.49,436.41,228.37,436.36,228.35Z"/><path class="cls-16" d="M429,224.59a2.66,2.66,0,1,0-3.41.65A2.48,2.48,0,0,0,429,224.59Z"/></g></g><g id="Character_2" data-name="Character 2"><g id="Character"><path id="Shadow-5" data-name="Shadow" class="cls-11" d="M448.6,204.66c-4,3-9.53,6.11-13.6,3.2-3.54-2.53-3.16-8-1.23-11.91s5-7.3,6-11.54c2.17-9.64-7.31-18.17-9.64-27.56l-21.86-12.62a5,5,0,0,0-6.83,1.83l-.58.55c-.44,1-.86,1.95-1.27,2.92-.77,1.81-1.54,3.62-2.29,5.44a159.8,159.8,0,0,0-7.06,19.81,32.48,32.48,0,0,0-.86,4.35,16.43,16.43,0,0,1-1.69,4.21c-1.39,3.18-2.62,6.43-3.79,9.7-2.11,5.89-4,11.86-6.32,17.69-2.17,5.49-4.66,11.43-8.18,16.21-1.71,2.31-4.77,4.2-7.12,5.79a72.17,72.17,0,0,1-8,4.7,169.94,169.94,0,0,1-17.09,7.24c-3.09,1.17-6.18,2.33-9.25,3.56a100.69,100.69,0,0,0-16.66,8.22,91.18,91.18,0,0,0-14.66,12.15c-4.82,4.77-9.2,10-14.31,14.48a64.77,64.77,0,0,1-12.77,8.68,66.09,66.09,0,0,1-7,3.11c-2.11.79-4.55,1.37-6.42,2.68a4.5,4.5,0,0,0-2,3.08,4.21,4.21,0,0,0,1,3.07,8.41,8.41,0,0,0,2.66,2A17.55,17.55,0,0,0,274,305.5c3.27-1.8,5.91-4.62,9.28-6.2a26.44,26.44,0,0,1,5.66-1.72,3.16,3.16,0,0,1,1.8-.05c3.61,1.33-6.49,6.8-7.52,7.42-1.84,1.09-3.71,2.14-5.44,3.39-1.27.92-3.66,2.35-3.76,4.08a3.59,3.59,0,0,0,1,2.49,7.78,7.78,0,0,0,2.18,1.63,21,21,0,0,0,8.3,2.29A17.44,17.44,0,0,0,297.05,316c2.15-1.49,4-3.48,6.41-4.48s5.35-1,7.32-2.73a13.71,13.71,0,0,0,2.59-4c1.84-3.4,6.21-5.33,9.45-7.21,3.7-2.14,7.49-4.26,10.62-7.21,4.19-4,6.95-9.17,10.58-13.65a29.33,29.33,0,0,1,15.5-10.38l6.18-1.51c3.55-.87,7.09-1.84,10.66-2.6,3.06-.66,6.17-1.09,9.24-1.73,6.21-1.31,12.42-3.14,17.75-6.68q.87-.57,1.68-1.2c9.65-7.37,13.62-19.82,17.05-31.47,2.85,6,10.66,8.25,17.15,6.84a29.54,29.54,0,0,0,9.26-4l12.9-22.34C457.68,199.29,452.35,201.9,448.6,204.66Z"/><g id="Bottom"><path class="cls-20" d="M289.88,260.21s-9.4,18.28-12.9,22.59a41.66,41.66,0,0,1-9.63,9.12c-.89.63-2.84,1.74-3.56,2.25a1.3,1.3,0,0,0-.34,2c1.09,1.7,7,3.48,11,1.77s8.36-6.34,10.86-7.88c.94-.58,1.84-1.19,2.72-1.85s.85-1.45,1.12-2.33c.14-.42.36-1.62.36-1.62,1-2,11.15-13.93,12.32-15.83Z"/><path class="cls-15" d="M288.4,294a4.71,4.71,0,0,1-.52,1.5c-.54.74-4,1.78-5.33,2.12a7.26,7.26,0,0,0-4.4,3.1,12.61,12.61,0,0,1-7.47,4.39,20,20,0,0,1-11.82-1.18c-4.66-1.87-4.47-4.8-4.47-4.8s.3-2.74,1.59-2.92S288.4,294,288.4,294Z"/><path class="cls-16" d="M289.85,283.61c.12.09.35.22.36.81,0,.22-.68,2.45-.82,3.79s0,4.21-1,5.79c-3.1,2.07-7.25,1.9-9.75,4.2s-5,5.3-11.6,5.25-11-3.05-11.79-5.09.62-3.53,5.13-4.89c4.79-1.44,11.9-7.21,11.9-7.21a29,29,0,0,0,2.78-2.65,24.93,24.93,0,0,0,2.09-3.15,2.81,2.81,0,0,1,1.26-1.18,3,3,0,0,1,1.73.13,12.09,12.09,0,0,1,2.62,1,4.23,4.23,0,0,1,1.92,2,18.05,18.05,0,0,0,.65,1.92,2.43,2.43,0,0,0,2.25,1.24,2.1,2.1,0,0,0,2-1.38A4.2,4.2,0,0,0,289.85,283.61Z"/><path class="cls-4" d="M271.47,302.79a8.22,8.22,0,0,0-3.28-7.85c-4.27-3.43-7.5-2.45-9.18-1.7-2,.89-5,3-3.91,5.21,1.21,2.39,3.63,3.9,8.49,5S271.47,302.79,271.47,302.79Z"/><path class="cls-4" d="M281.07,289.31a.59.59,0,0,1-.39-.32c-.38-.86-3.28-4.41-6.83-4.16-.09-.43.27-.77,1-1,3.59.41,6.35,3.75,6.81,4.8a.52.52,0,0,1-.29.7A.59.59,0,0,1,281.07,289.31Z"/><path class="cls-4" d="M271.4,287a1.73,1.73,0,0,1,1.2-1,10.3,10.3,0,0,1,6.37,4.74.52.52,0,0,1-.3.7.56.56,0,0,1-.73-.29C277.56,290.29,274.81,286.93,271.4,287Z"/><path class="cls-4" d="M265,291.32a3.11,3.11,0,0,1,1.79-1.11,10.16,10.16,0,0,1,6.67,4.78.51.51,0,0,1-.29.7.53.53,0,0,1-.35,0,.57.57,0,0,1-.39-.32C272,294.49,268.83,290.59,265,291.32Z"/><path class="cls-4" d="M275.58,293.58a.56.56,0,0,1-.39-.31c-.38-.86-3.22-4.33-6.72-4.17a1.93,1.93,0,0,1,1.38-1,10.23,10.23,0,0,1,6.37,4.74.52.52,0,0,1-.29.7A.6.6,0,0,1,275.58,293.58Z"/><path class="cls-20" d="M311.07,273.4s-10,16.62-13.46,20.93a44.14,44.14,0,0,1-9.95,9.32c-.89.63-2.84,1.74-3.56,2.25a1.28,1.28,0,0,0-.34,2c1.09,1.71,7,3.49,11,1.78s8.36-6.34,10.86-7.89c.94-.58,1.84-1.18,2.72-1.85s.85-1.44,1.12-2.32c.14-.43.36-1.63.36-1.63,1-2,12.11-12.36,13.95-14.52Z"/><path class="cls-15" d="M308.71,305.73a4.79,4.79,0,0,1-.52,1.5c-.54.73-4,1.77-5.33,2.11a7.31,7.31,0,0,0-4.4,3.1,12.62,12.62,0,0,1-7.47,4.4,20,20,0,0,1-11.82-1.19c-4.66-1.86-4.47-4.8-4.47-4.8s.3-2.73,1.59-2.91S308.71,305.73,308.71,305.73Z"/><path class="cls-16" d="M310.16,295.34c.12.09.35.22.36.81,0,.22-.68,2.45-.82,3.79s0,4.21-1,5.79c-3.1,2.07-7.25,1.9-9.75,4.2s-5,5.3-11.59,5.25-11-3.05-11.8-5.1.62-3.52,5.13-4.88c4.8-1.44,11.9-7.21,11.9-7.21a29,29,0,0,0,2.78-2.65,25,25,0,0,0,2.09-3.16,2.15,2.15,0,0,1,3-1.05,12.67,12.67,0,0,1,2.62,1,4.19,4.19,0,0,1,1.92,2,18.85,18.85,0,0,0,.65,1.92,2.45,2.45,0,0,0,2.25,1.24,2.09,2.09,0,0,0,2-1.39A4.09,4.09,0,0,0,310.16,295.34Z"/><path class="cls-4" d="M291.78,314.51a8.23,8.23,0,0,0-3.27-7.85c-4.28-3.43-7.51-2.45-9.19-1.7-2,.9-5,3-3.91,5.22,1.21,2.39,3.63,3.9,8.49,5S291.78,314.51,291.78,314.51Z"/><path class="cls-4" d="M301.38,301a.58.58,0,0,1-.38-.32c-.39-.87-3.29-4.41-6.84-4.17-.09-.42.27-.76,1-1,3.59.41,6.35,3.74,6.81,4.79a.51.51,0,0,1-.29.7A.6.6,0,0,1,301.38,301Z"/><path class="cls-4" d="M291.71,298.68a1.71,1.71,0,0,1,1.2-1,10.23,10.23,0,0,1,6.37,4.74.52.52,0,0,1-.3.7.57.57,0,0,1-.34,0,.56.56,0,0,1-.39-.31C297.87,302,295.12,298.66,291.71,298.68Z"/><path class="cls-4" d="M285.32,303a3.15,3.15,0,0,1,1.79-1.1c3.52.48,6.21,3.75,6.67,4.78a.52.52,0,0,1-.29.7.53.53,0,0,1-.35,0,.58.58,0,0,1-.39-.31C292.34,306.21,289.14,302.32,285.32,303Z"/><path class="cls-4" d="M295.89,305.31a.55.55,0,0,1-.39-.32c-.38-.86-3.22-4.32-6.72-4.17a1.92,1.92,0,0,1,1.38-1,10.26,10.26,0,0,1,6.37,4.73.52.52,0,0,1-.29.7A.54.54,0,0,1,295.89,305.31Z"/><path class="cls-16" d="M389.47,206.8c-.09,7.14-.08,12.7-3.84,19.21s-11,10.22-21.82,13.83c-8.93,3-32.21,4.06-36,4.75-2.61.48-5.67.76-7.44,4.43-2,4.19-2.49,4.61-7.84,10-6.91,6.93-8.44,8.37-13.54,13.06-3.5,1.13-10.4-3.29-12.35-6.75,0,0,15.19-28.29,19.12-33.35,4.18-5.4,28.29-13,39.43-16.28,3.72-1.1,23.46-5.15,23.46-5.15Z"/><path class="cls-16" d="M389.47,206.8c-.09,7.14-.08,12.7-3.84,19.21s-11,10.22-21.82,13.83c-8.93,3-32.21,4.06-36,4.75-2.61.48-5.67.76-7.44,4.43-2,4.19-2.49,4.61-7.84,10-6.91,6.93-8.44,8.37-13.54,13.06-3.5,1.13-10.4-3.29-12.35-6.75,0,0,15.19-28.29,19.12-33.35,4.18-5.4,28.29-13,39.43-16.28,3.72-1.1,23.46-5.15,23.46-5.15Z"/><path class="cls-15" d="M327.85,244.59c3.75-.69,27-1.77,36-4.75h0c10.8-3.61,18.06-7.32,21.82-13.83.28-.5.54-1,.79-1.48l.16-.33v0c.2-.41.39-.81.56-1.22l0-.08a1.47,1.47,0,0,0,.06-.14,27.33,27.33,0,0,0,1-3l-19.08-3.51a35,35,0,0,0,1,11.12s-28.64,7.1-34.25,9.23c-6.62,2.5-15.12,3.81-16.47,9.52-.77,3.28-2.38,7.37-7.12,13.17l.22-.23c5.35-5.36,5.81-5.78,7.84-10C322.18,245.35,325.24,245.07,327.85,244.59Z"/><path class="cls-16" d="M308.92,275.89c2.93,6.26,11.72,8.75,11.72,8.75s5.55-4.82,12.75-11.45c4.28-3.94,5.65-6.59,8.15-10.52,2.2-3.45,5.31-3.12,7.91-3.68s26.81-2.79,36-4.85c8.19-1.83,13.89-4.82,18.64-10.65.5-.62,1-1.26,1.41-1.91,2.62-3.85,4.24-8.52,5.75-16.59l-32.7-10.4-9.91-3.16-.24-.07c.05,1,.7,4.24.89,5.32a54.31,54.31,0,0,0,4.28,12.71s0,0,0,0-39.26,9.38-44.84,16.59C324.82,251.06,308.92,275.89,308.92,275.89Z"/></g><g id="Top"><path class="cls-15" d="M396.26,119.85c3.49-2.06,13.84-4.73,22.31,1.7s7.94,15.73,8.1,26.88c.11,7.58,1.44,16.56,4.93,23,3.78,7.05,5.21,14.82-1.55,20.28s-25.2,5.16-32.5,3.26-21-8.73-17.37-21.18,9.69-10.54,11-19.33S396.26,119.85,396.26,119.85Z"/><path class="cls-20" d="M360.92,162.9a18.1,18.1,0,0,1,.72-2.69c1.41-4.24.83-8.79,0-13.08-.15-.74-.3-1.47-.46-2.2a8,8,0,0,1-.2-1.07c0-.35-.06-.63-.49-.72a1.24,1.24,0,0,0-.87.21,3.6,3.6,0,0,0-1.55,2.52,17.15,17.15,0,0,0-.13,3c0,.78-.72.24-1-.06-1.45-1.49-2.17-4.72-2.64-6.71a26.22,26.22,0,0,0-.86-3.93,4.14,4.14,0,0,0-1.49-2c-.48-.31-1-.44-1.34.19a2.8,2.8,0,0,0-.19,1.29,3.05,3.05,0,0,1-.72,2.39,6.74,6.74,0,0,0-1.27,1.29,20,20,0,0,0-.7,2.19c-.29.63-.87,1-1.2,1.56a5.53,5.53,0,0,0-.35,2.33,18.7,18.7,0,0,0,.44,4.84,35.12,35.12,0,0,0,2.46,7,9.9,9.9,0,0,1,1.17,3.91,21.12,21.12,0,0,1-.53,4.1c-.34,1.69-.57,3.41-1.05,5.06-4.2,14.68-3.52,17.31-1.27,23.13.78,2,3.91,5.42,11.38,2.26,8.28-3.49,25.85-14.24,25.85-14.24l11.14-19.17a36.57,36.57,0,0,0-5.3-1.07c-2.71-.34-6.29,1-9.16,3-6,4.12-21.37,14.85-21.37,14.85S360.68,165.38,360.92,162.9Z"/><path class="cls-21" d="M357,151.85a13.49,13.49,0,0,0-1.27,7.36,8,8,0,0,1-.58-4C355.56,153.12,356.22,152.4,357,151.85Z"/><path class="cls-7" d="M395.72,164.17c-2.33-.64-4.68-1.95-9.56-.64s-23.67,15.22-24.61,15.56l-1.59.6-.07,1.43S362.5,187,362,191a14.83,14.83,0,0,1-2.09,6.23,2.51,2.51,0,0,0,2.7.67c1.67-.57,3.48-2.43,5-3.27s20.34-11.72,20.34-11.72Z"/><path class="cls-11" d="M395.72,164.17c-2.33-.64-4.68-1.95-9.56-.64s-23.67,15.22-24.61,15.56l-1.59.6-.07,1.43S362.5,187,362,191a14.83,14.83,0,0,1-2.09,6.23,2.51,2.51,0,0,0,2.7.67c1.67-.57,3.48-2.43,5-3.27s20.34-11.72,20.34-11.72Z"/><path class="cls-14" d="M359.89,181.12c1.31,1.69,4.47,9.25,0,16.13a15.34,15.34,0,0,1-5.2,1.69c2.23-1.61,5.74-7.06,5.2-16.45Z"/><path class="cls-7" d="M410.86,167.2l8.62,3.21s3.7,2.26,3.82,13.11A54.8,54.8,0,0,1,421.92,198c-4.06,22.48-13.22,37.15-13.22,37.15a106.29,106.29,0,0,1-23.33-10c-13.12-7.57-16.68-14.62-16.68-14.62l10-8,2.62-12s-4.81-5.28-2.46-11.39c3.25-8.47,16.88-15,16.88-15Z"/><path class="cls-20" d="M391.92,125.73c-1.18,1.07-5.35,5.14-5.35,18.44,0,11.39,3.17,14.1,4.94,15s4.65.91,8.12.6l-.41,5.48s-16.48,11.92-6.48,15.29S414,168.82,414,168.82l1.18-16.14s1.87,2.11,5.52-.62c3-2.26,4.28-6.35,2.25-8.75a4.93,4.93,0,0,0-8,1s-8-3.32-6.12-16.43C402.07,128.48,395.72,128.51,391.92,125.73Z"/><path class="cls-15" d="M399.42,142a1.42,1.42,0,1,0,2.81.35,1.42,1.42,0,1,0-2.81-.35Z"/><path class="cls-15" d="M393.13,135.53l-3.31,1.11a1.67,1.67,0,0,0,2.15,1.13A1.83,1.83,0,0,0,393.13,135.53Z"/><path class="cls-15" d="M403.82,138.27l-2.86-2a1.68,1.68,0,0,0,.37,2.4A1.83,1.83,0,0,0,403.82,138.27Z"/><path class="cls-15" d="M388.68,140.81a1.42,1.42,0,1,0,1.6-1.28A1.45,1.45,0,0,0,388.68,140.81Z"/><polygon class="cls-21" points="396.26 139.4 395.41 148.43 390.6 146.88 396.26 139.4"/><path class="cls-21" d="M399.63,159.81a22.4,22.4,0,0,0,8.5-2.41,10.3,10.3,0,0,0,4.14-4.07,8.5,8.5,0,0,1-3.37,5.33c-3.47,2.81-9.44,3.4-9.44,3.4Z"/><path class="cls-21" d="M399.82,152.44a1.62,1.62,0,1,1-1.62-1.62A1.63,1.63,0,0,1,399.82,152.44Z"/><path class="cls-15" d="M401.61,118c-6.11-1.47-12.23,1.23-15,5.49a15.09,15.09,0,0,0-2.21,9.47l5.53,1.05a20.4,20.4,0,0,1,1.93-6.52,16.72,16.72,0,0,0-.24,7s3.85.65,8.59,1.07a23.2,23.2,0,0,1,1.51-6.88,28,28,0,0,0,0,7c2.18.12,6.09.29,7.91.19l3.54-13S406,119,401.61,118Z"/><path class="cls-20" d="M483.56,190.73a4.22,4.22,0,0,0-2.44-.26,26.41,26.41,0,0,0-3.82,1.29c-1.95.62-5.08,1.67-7.11,1.19-.41-.09-1.25-.43-.58-.84a15.79,15.79,0,0,0,2.54-1.69,3.64,3.64,0,0,0,1.37-2.6,1.48,1.48,0,0,0-.27-.88c-.29-.3-.56-.19-.88,0a7.72,7.72,0,0,1-1,.38c-.73.25-1.43.49-2.13.75-4.12,1.46-8.3,3.32-11.23,6.72a18.24,18.24,0,0,1-1.92,2c-2,1.48-18.27,8.79-18.27,8.79s-5.91-17.82-8.23-24.69c-1.11-3.3-2.84-6.76-5.21-8.11a17.66,17.66,0,0,0-4.35-1.86c-6.09,7.08-6.28,14.13-3.42,21.81,0,0,7.65,19.12,12.18,26.87a14.37,14.37,0,0,0,1,1.47.22.22,0,0,0,.06.07c1.46,1.91,4,2.66,9.07.5,3.32-1.42,7.71-4.13,13.53-8.63,2.07-1.57,7.74-6.15,8.95-6.88a10.09,10.09,0,0,1,4-1,34.71,34.71,0,0,0,7.22-1.5,17.84,17.84,0,0,0,4.38-2.1,6.06,6.06,0,0,0,1.83-1.5,13.65,13.65,0,0,1,.7-1.84c.42-.63,1.16-1,1.52-1.71a7,7,0,0,0,.45-1.78,3,3,0,0,1,1.66-1.84,2.78,2.78,0,0,0,1-.82C484.45,191.38,484.08,191,483.56,190.73Z"/><path class="cls-21" d="M467.56,194.4a13.42,13.42,0,0,1-5.65,4.88,7.85,7.85,0,0,0,3.73-1.57C467.23,196.3,467.5,195.36,467.56,194.4Z"/><path class="cls-7" d="M419.48,170.41c4,1.23,6.19,2.23,8.2,5.25s7.55,21,8.71,23.82,2.77,4.29,1.43,6.06c0,0-8.7,3.37-11.67,9-2.5,1-2-2-2.84-3.79s-8.49-20.24-8.49-20.24S410.52,177.4,419.48,170.41Z"/><path class="cls-11" d="M419.48,170.41c4,1.23,6.19,2.23,8.2,5.25s7.55,21,8.71,23.82,2.77,4.29,1.43,6.06c0,0-8.7,3.37-11.67,9-2.5,1-2-2-2.84-3.79s-8.49-20.24-8.49-20.24S410.52,177.4,419.48,170.41Z"/><path class="cls-14" d="M437.82,205.54a30.87,30.87,0,0,0-7.77,8.16,13.1,13.1,0,0,0-1.75,5l-2.15-4.16S427.3,208.88,437.82,205.54Z"/><path class="cls-4" d="M402.71,171l-7,6.26,3.53-12s-16.51,11.89-6.51,15.26S414,168.78,414,168.78l0-.44Z"/><path class="cls-3" d="M395.69,177.24s5.57-6.72,7.06-7.73,6.83,1.23,11.44-3l.17-2.34s.52-.13,1.18,1.55,1.5,3.78,1.5,3.78-.21,3.61-4.38,6.39c-5.07,3.38-7.6,3.77-8.35,1.25a20.66,20.66,0,0,0-2-4.7Z"/><path class="cls-3" d="M395.69,177.24l3.53-12,.24-2.88c-.7-.18-1.41.88-2.35,2s-6.4,6.34-5.62,8.72a8.21,8.21,0,0,1,4.4-2.7Z"/></g></g></g><g id="Character_1" data-name="Character 1"><g id="Character_on_the_couch" data-name="Character on the couch"><g id="Couch"><path class="cls-4" d="M113.21,340.06H101.82l1.82,11.11h0a2.07,2.07,0,0,0,1.11,1.37,6.08,6.08,0,0,0,5.51,0,2,2,0,0,0,1.1-1.37h0Z"/><path class="cls-4" d="M50.11,306.15H38.71l1.82,11.11h0a2,2,0,0,0,1.11,1.37,6.08,6.08,0,0,0,5.51,0,2,2,0,0,0,1.1-1.37h0Z"/><path class="cls-4" d="M198.51,290.81H187.12l1.82,11.11h0a2,2,0,0,0,1.1,1.37,6.08,6.08,0,0,0,5.51,0,2.07,2.07,0,0,0,1.11-1.37h0Z"/><path class="cls-4" d="M139.11,258.69H127.72l1.82,11.12h0a2.07,2.07,0,0,0,1.11,1.37,6.08,6.08,0,0,0,5.51,0,2,2,0,0,0,1.1-1.37h0Z"/><path class="cls-16" d="M206.15,234v53.06a12.27,12.27,0,0,1-5.52,9.57l-4.51,2.6-.07,0a12.47,12.47,0,0,1-6.9,1.18l-67.63,35.79a12.33,12.33,0,0,1-5.46,9.18.07.07,0,0,0,0,0l-4.49,2.59a2.06,2.06,0,0,1-.42.21l-.23.12-.06,0a12.57,12.57,0,0,1-8.58.4,7.17,7.17,0,0,1-1-.36l-.16-.06c-.23-.1-.44-.22-.65-.33L35.4,310.58A12.24,12.24,0,0,1,29.87,301l-.09-67.18v-23.3A12.27,12.27,0,0,1,35.3,201L108.07,159a11.42,11.42,0,0,1,10.66.18l4.51,2.59a14.71,14.71,0,0,1,6.36,9.52l4.34,26.19,4-2.31a12,12,0,0,1,12,0l50.66,29.26A12.25,12.25,0,0,1,206.15,234Z"/><path class="cls-14" d="M123.24,161.8l-4.5-2.6a11.43,11.43,0,0,0-10.66-.18L35.3,201c-.32.19-.67.43-.56.35a12.61,12.61,0,0,0-4.9,8.28c.41-2.82,2.7-3.84,5.46-2.25l4.5,2.6a12.22,12.22,0,0,0,11.05,0l72.39-41.76C126.29,166.41,126.29,163.56,123.24,161.8Z"/><path class="cls-15" d="M206.15,234v53.06a12.27,12.27,0,0,1-5.52,9.57l-4.51,2.6-.07,0a11.82,11.82,0,0,1-6.47,1.22,10.77,10.77,0,0,1-4.5-1.26L133.94,269.7a12.23,12.23,0,0,1-5.52-9.57V207.07a12.21,12.21,0,0,1,5.52-9.57l4-2.31a12,12,0,0,1,12,0l50.66,29.26A12.25,12.25,0,0,1,206.15,234Z"/><path class="cls-14" d="M138,195.18l-4,2.32c-3,1.76-3,4.63,0,6.38l51.14,29.53A12.24,12.24,0,0,1,190.6,243V296c0,3.51,2.49,4.95,5.53,3.19l4.49-2.59a12.27,12.27,0,0,0,5.53-9.57V234a12.27,12.27,0,0,0-5.53-9.57L150,195.18A12.05,12.05,0,0,0,138,195.18Z"/><path class="cls-16" d="M190.6,243V296c0,3.51,2.49,4.95,5.53,3.19l4.49-2.59a12.27,12.27,0,0,0,5.53-9.57V234a11.31,11.31,0,0,0-1.62-5.44l-15.55,9A11.34,11.34,0,0,1,190.6,243Z"/><path class="cls-15" d="M188.3,300.5a12.87,12.87,0,0,1-2,3,24,24,0,0,1-5.19,3.64c-19.44,11.22-33.45,19.28-52.88,30.5a6.1,6.1,0,0,1-5.52,0l-18-10.38L68.78,306.56c-3-1.76-5.53-5.87-5.53-9.18s2.48-7.41,5.53-9.17l20.39-11.78,15.55-9,16.89-9.73a12.22,12.22,0,0,1,11,0l51.14,29.53a11.84,11.84,0,0,1,5.52,9.18A9.73,9.73,0,0,1,188.3,300.5Z"/><path class="cls-16" d="M128.21,325.71l58.35-33.66c1.53-.88,2.76-.17,2.76,1.59v5.59a6.1,6.1,0,0,1-2.76,4.79l-58.35,33.66c-1.53.88-2.76.16-2.76-1.6V330.5A6.13,6.13,0,0,1,128.21,325.71Z"/><path class="cls-16" d="M121.61,230.37,68.78,260.84a12.21,12.21,0,0,0-5.52,9.57v11.18a12.21,12.21,0,0,0,5.52,9.57l51.14,29.52a12.16,12.16,0,0,0,11,0l52.83-30.47a12.2,12.2,0,0,0,5.52-9.56V269.47a12.2,12.2,0,0,0-5.52-9.57l-51.14-29.53A12.22,12.22,0,0,0,121.61,230.37Z"/><path class="cls-15" d="M125.45,298.06V322a11.27,11.27,0,0,1-5.52-1.33L68.78,291.16a12.22,12.22,0,0,1-5.53-9.57V270.41a12.38,12.38,0,0,1,5-9.21c-2.48,1.78-2.29,4.38.56,6l51.15,29.53A11.29,11.29,0,0,0,125.45,298.06Z"/><path class="cls-14" d="M131,296.75l52.83-30.47c3-1.76,3-4.62,0-6.38l-51.14-29.53a12.22,12.22,0,0,0-11,0L68.78,260.84c-3,1.76-3,4.62,0,6.38l51.14,29.53A12.22,12.22,0,0,0,131,296.75Z"/></g><g id="Character-2" data-name="Character"><g id="Legs"><path class="cls-22" d="M171.63,325.31c-.7-9.39,5.69-33.64,5.69-33.64L160,281.46s-.8,5.92-1.78,13.89-2.75,11.21-2.75,11.21-3.22,4.11-3.12,6.8,2.47,8.85,3.88,13.59,2.33,8.4,5.2,13,15.2,7.89,14.5,3.24C174.94,336.69,172.41,333,171.63,325.31Z"/><path class="cls-14" d="M155.45,306.56c-1-.05-2.19,1.73-3,3s-3,2.28-2.57,5.54,3.33,5.69,3.87,10.14.77,12.11,7.32,17.47,13.41,5.82,15.92,4.34a3.23,3.23,0,0,0,1.52-1.95,2.53,2.53,0,0,0-.41-2.07c-.76-1.65-1.48-3.32-2.12-5a71.11,71.11,0,0,1-3.32-10.66c-.47-2.36-.57-4.54-1.17-4.92a9.28,9.28,0,0,0-4.86-1.53c-2.56-.34-4-.25-4.37,0s-.37,1.05-.42,1.6l-.18,2.26a1.4,1.4,0,0,1-.11.5.43.43,0,0,1-.43.24c-.18,0-.29-.22-.37-.39-1.22-2.57-1.66-5.43-2.36-8.19a28.67,28.67,0,0,0-1.74-4.91c-.45-1-1.12-2.46-1.44-3.39a2.08,2.08,0,0,1-.05-1.5Z"/><path class="cls-22" d="M185.86,327s5.4,12.91,8.45,17.65a55.92,55.92,0,0,0,11.46,13.34c1,.86,3.35,2.38,4.2,3.07a1.59,1.59,0,0,1,.26,2.45c-1.48,2-8.93,3.72-13.7,1.29s-9.95-7.72-12.91-9.82l-3.89-2.81c-1-.72-.93-1.17-.83-2.38l-.5-1.94c-.78-4-6.77-12.71-6.77-12.71Z"/><path class="cls-14" d="M178.4,347.8c-.87.54-.82,2.66-.79,4.21s-1.15,3.56,1,6,6,2.8,8.94,6.16,7.49,9.54,15.93,10.24,14.35-2.8,15.58-5.45a3.25,3.25,0,0,0,.14-2.47c-.29-.84-.76-1-1.51-1.48-1.56-.92-3.1-1.89-4.59-2.92a69.87,69.87,0,0,1-8.78-6.91c-1.73-1.68-3-3.41-3.75-3.39a9.41,9.41,0,0,0-4.87,1.5c-2.31,1.17-3.43,2.06-3.62,2.46-.25.55.29,1.08.57,1.56l1.13,2a1.37,1.37,0,0,1,.19.47.44.44,0,0,1-.21.44.67.67,0,0,1-.54-.11c-2.46-1.43-4.44-3.54-6.58-5.41a23.62,23.62,0,0,0-3.77-2.9c-.94-.59-2.16-1.2-3.11-1.79-.71-.45-1-.63-1.07-1Z"/><path class="cls-7" d="M178.07,304.78c.77-6.51,1.94-16.46,2.64-23.1,1.11-10.6,1.65-21.61-.48-26.24-2-4.37-11.62-9.69-21.73-15.12s-28-13.83-28-13.83L79.28,237.22c1.64,8.92,2.35,13.28,7.27,21.06,4.75,7.52,11.1,12.13,23.35,17.72,11,5,24,10.34,26.87,11.61,3.65,1.61,7,2.82,9,8.27,1.84,5.19,4.43,14.3,11.65,25,8.26,12.21,15.63,23.07,15.63,23.07s12.27.71,18.34-9.24C191.36,334.68,185,320.18,178.07,304.78Z"/><path class="cls-18" d="M178.07,304.78c.77-6.51,1.94-16.46,2.64-23.1,1.11-10.6,1.65-21.61-.48-26.24-2-4.37-11.62-9.69-21.73-15.12s-28-13.83-28-13.83L79.28,237.22c1.64,8.92,2.35,13.28,7.27,21.06,4.75,7.52,11.1,12.13,23.35,17.72,11,5,24,10.34,26.87,11.61,3.65,1.61,7,2.82,9,8.27,1.84,5.19,4.43,14.3,11.65,25,8.26,12.21,15.63,23.07,15.63,23.07s12.27.71,18.34-9.24C191.36,334.68,185,320.18,178.07,304.78Z"/><path class="cls-19" d="M176.44,301.15c-6.49-14.43-13-28.7-14.8-31.73-3.79-6.43-34-23.25-35-23.78h0l1.25-2a19.67,19.67,0,0,0,2.39-7.81,21,21,0,0,1-.78,8.75c4.65,2.7,16.48,9.57,21.23,12.51,6,3.7,12.35,8.22,15.27,15C168.18,277.09,173.72,293.16,176.44,301.15Z"/><path class="cls-7" d="M169.49,339.21l3,5s14.72,1.41,19.25-9.49l-2.27-5C187.38,335.86,176.71,340.35,169.49,339.21Z"/></g><g id="Arm"><path class="cls-22" d="M105.5,168.28c11.5-1.06,14.33,3.6,17.11,8.21,4.73,7.81,13.56,32.68,13.56,32.68l33.39,15.14-5.83,10.86S132.39,226,128.05,224c-2.7-1.2-4.18-2-6.19-5.68-4-7.28-10.35-21.14-10.35-21.14Z"/><path class="cls-7" d="M105.5,168.07c3.38-.54,8.39-.26,11.94,2s5,4.91,9.2,13.42S136.51,209,136.51,209l6.85,3.39c-2.89,1.22-8.07,10.45-6.89,14.54,0,0-7.54-2.39-10.33-3.25s-3.49-2.76-5.75-6.91-9.47-19.89-9.47-19.89S104.17,168.58,105.5,168.07Z"/><path class="cls-13" d="M105.5,168.07c3.38-.54,8.39-.26,11.94,2s5,4.91,9.2,13.42S136.51,209,136.51,209l6.85,3.39c-2.89,1.22-8.07,10.45-6.89,14.54,0,0-7.54-2.39-10.33-3.25s-3.49-2.76-5.75-6.91-9.47-19.89-9.47-19.89S104.17,168.58,105.5,168.07Z"/><path class="cls-19" d="M136.51,209c-1.65-.4-6.18.76-8.95,2.67,0,0,2.13-3.53,8.44-4.16Z"/></g><g id="Chest"><path class="cls-7" d="M84.61,172.28l-11.77,4.5c-2.32,1.07,1.89,15,2.92,31.37C76.82,225,80,246.1,80,246.1s13,3.6,31.8-4.53c16.6-7.2,18.68-15.08,18.68-15.08l-5.21-7.28-1.84-15.33s6-8.49,1-18-18.93-17.82-18.93-17.82l-6.2,1Z"/><path class="cls-12" d="M84.61,172.28l-11.77,4.5c-2.32,1.07,1.89,15,2.92,31.37C76.82,225,80,246.1,80,246.1s13,3.6,31.8-4.53c16.6-7.2,18.68-15.08,18.68-15.08l-5.21-7.28-1.84-15.33s6-8.49,1-18-18.93-17.82-18.93-17.82l-6.2,1Z"/><path class="cls-11" d="M89.1,208.84a13.56,13.56,0,0,0,12.48,4.6,13.41,13.41,0,0,0,10-7.59s-.52,8.53-10.54,9.77S89.1,208.84,89.1,208.84Z"/></g><g id="Head"><path class="cls-22" d="M108.85,128.21c2.66,1.47,6.08,8,6.13,21.77,0,11.7-3.66,14.69-5.54,15.58s-5.57.48-9.15,0l.06,4.84c4.87,7.26,6.51,12,8.58,19-9.25-7-12.46-9.38-24.06-15.79l-.35-16.22s-2,2.1-5.69-.92c-3-2.49-4.12-6.79-1.89-9.18a5.12,5.12,0,0,1,8.19,1.4S83.51,134.58,91,130.21,108.47,132.75,108.85,128.21Z"/><path class="cls-23" d="M100.53,157l3.75,1a1.9,1.9,0,0,1-2.33,1.45A2,2,0,0,1,100.53,157Z"/><path class="cls-14" d="M112.71,140l-3.81-.92a1.88,1.88,0,0,1,2.3-1.47A2,2,0,0,1,112.71,140Z"/><path class="cls-14" d="M95.62,142.56l3.37-2a1.88,1.88,0,0,0-2.63-.74A2.06,2.06,0,0,0,95.62,142.56Z"/><path class="cls-15" d="M112.41,145.42a1.59,1.59,0,1,1-1.75-1.48A1.61,1.61,0,0,1,112.41,145.42Z"/><path class="cls-15" d="M100.09,146.73a1.59,1.59,0,1,1-1.75-1.48A1.61,1.61,0,0,1,100.09,146.73Z"/><path class="cls-23" d="M100.29,165.54c-3.77-.39-11.57-2.4-12.86-5.43a7.89,7.89,0,0,0,2.82,3.83c2.36,1.92,10.1,3.94,10.1,3.94Z"/><path class="cls-23" d="M96,146.08a.56.56,0,0,0-.24-.16l-.52-.17-.67-.22c-.19-.07-.39-.13-.58-.18a2.38,2.38,0,0,0-.37-.06,1.3,1.3,0,0,0-.48,0c-.12,0-.14.19-.11.29a.41.41,0,0,0,.28.28c.1,0,.19.06.28.07l.19,0h.12l.17,0,.61.18a3.27,3.27,0,0,0,.81.18.8.8,0,0,0,.4-.06A.23.23,0,0,0,96,146.08Z"/><path class="cls-23" d="M95.89,147.32a.84.84,0,0,0-.59-.31,5.32,5.32,0,0,0-1,0c-.38,0-.75,0-1.12.08s-.14.58.13.6a9.36,9.36,0,0,0,1.4-.05l.57,0h.25l.17,0c.1,0,.09,0,.16-.1A.14.14,0,0,0,95.89,147.32Z"/><path class="cls-23" d="M95.85,148.12c-.09-.09-.23,0-.34,0a1,1,0,0,0-.25.06l-.5.17-.47.15-.19,0a1.84,1.84,0,0,0-.25.09.18.18,0,0,0-.13.2v0a.3.3,0,0,0,.17.26.41.41,0,0,0,.22,0h.07l.22,0,.25-.07.5-.17a1.55,1.55,0,0,0,.59-.32.52.52,0,0,0,.14-.19A.24.24,0,0,0,95.85,148.12Z"/><path class="cls-2" d="M114.47,141.63a.09.09,0,0,0,0,0c-.66-3.71-1.4-6.48-1.57-7.12a.93.93,0,0,0,0-.13c0,8.58-11.28,8.15-11.28,8.15,2.11-5.63-.7-7.9-.7-7.9-2.85,7.3-8.51,8.61-8.51,8.61,0-5.16-2.24-7.67-2.24-7.67,1.09,9-5,13.13-5,13.13a5.12,5.12,0,0,0-8.19-1.4c-2.23,2.39-1.12,6.7,1.89,9.19,3.65,3,5.69.92,5.69.92l.18,8.45c-.47-4-14.82-13.29-15.48-24.62-.64-11.06,3.19-18.34,15-23.23,10.48-4.36,20.22,2.91,20.22,2.91,5.71-.38,10.72,3.26,12.53,9.64A12.57,12.57,0,0,1,114.47,141.63Z"/><path class="cls-3" d="M90.12,135.52a14.12,14.12,0,0,1-10.65,10.34,5.52,5.52,0,0,1,5.66,2.79S92,146,90.12,135.52Z"/><path class="cls-16" d="M117.59,140.11h-.76a22.74,22.74,0,0,0-7.53,1.31c-2.38,1.1-3.2,2-4.54,2.25s-2.35-.52-5-.91c-2.06-.3-5.47.25-8.07.89l-.8.21a1.48,1.48,0,0,0-.85,1.5,2.72,2.72,0,0,0,.83,1.49,1.77,1.77,0,0,1,.28.6,25.76,25.76,0,0,0,1.14,4.27,4.92,4.92,0,0,0,1.08,1.44,5.3,5.3,0,0,0,.54.39l.31.17a4.73,4.73,0,0,0,.92.31l.16,0,.24,0,.25,0a5.4,5.4,0,0,0,.81,0l.34,0,.43,0a6.23,6.23,0,0,0,5.4-4.05c.77-1.78.48-4.11,2-4.32h.28c1.13.11,1.07,2.29,1.83,3.75a5.75,5.75,0,0,0,1.14,1.55l.27.23.14.1.15.1.14.08a.55.55,0,0,0,.14.08l.12.06.08,0a4.32,4.32,0,0,0,1.33.36h.13a7,7,0,0,0,1.62-.06,5.35,5.35,0,0,0,4.57-3.72,30.92,30.92,0,0,0,.79-4.54,1.54,1.54,0,0,1,.27-.62,3.41,3.41,0,0,0,.64-1.72C118.48,140.69,118,140.11,117.59,140.11Zm-15.68,8.47a5.52,5.52,0,0,1-1.07,2.49h0a5.11,5.11,0,0,1-3.56,1.84,3.64,3.64,0,0,1-3.53-1.21l-.11-.15-.11-.15-.09-.15-.08-.13a.47.47,0,0,1,0-.1.41.41,0,0,1,0-.09l-.08-.16h0c-.07-.16-.13-.32-.19-.47h0c0-.09-.07-.19-.1-.28s-.09-.32-.13-.46,0-.05,0-.08l0-.09c-.3-1.13-.68-3.38-.13-4s2-1.34,4.51-1.44h.27a8.48,8.48,0,0,1,1.13,0l.44,0a8.76,8.76,0,0,1,1.11.21l.34.09.37.13.08,0a.75.75,0,0,1,.13.06,2,2,0,0,1,.76.5C102.25,145.71,102.15,147.24,101.91,148.58Zm14.36-2.52a5.7,5.7,0,0,1-2.2,4.06,4.41,4.41,0,0,1-1.82.67,3.58,3.58,0,0,1-3.74-1.23h0a.61.61,0,0,1-.07-.1l-.08-.11,0-.06-.1-.17-.11-.21a.41.41,0,0,0,0-.09.14.14,0,0,0,0-.06l0-.08a.25.25,0,0,1,0-.07,5,5,0,0,1-.27-.84c-.3-1.26-.48-2.75,0-3.53s2.23-1.83,4-2.3a11.54,11.54,0,0,1,1.13-.24l.14,0,.14,0,.39-.05h.64a4.91,4.91,0,0,1,.57,0h.27l.13,0,.17,0,.27.08h0a2.09,2.09,0,0,1,.62.31C116.7,142.52,116.48,144.86,116.27,146.06Z"/><path class="cls-16" d="M91,144.5l-7.15,2.57a6.92,6.92,0,0,1,1.31,1.58l5.93-1.92Z"/><path class="cls-23" d="M104.23,146l1.24,9.17,5.36-2-6.09-7.38A1.2,1.2,0,0,0,104.23,146Z"/></g><g id="Writting_Hand" data-name="Writting Hand"><path class="cls-22" d="M135.5,241l4,4.88a.19.19,0,0,1-.19.31l-6.18-1.45Z"/><path class="cls-15" d="M139.31,246.22a.19.19,0,0,0,.19-.31l-.78-.95h0a1.07,1.07,0,0,1-.63.91l-.1,0Z"/><path class="cls-7" d="M110.52,230.69l.5.31.6.38,21.51,13.39a2.87,2.87,0,0,0,1.73-1.12,2.94,2.94,0,0,0,.64-2.62L114,227.65l-1.14-.72C113.57,227.44,111.25,231.19,110.52,230.69Z"/><path class="cls-5" d="M112.41,231.88l1.11.68c.31.21.94-.34,1.5-1.09.75-1,1.23-2.4.82-2.68l-.82-.51-.29-.17c.41.27-.07,1.69-.82,2.68-.54.71-1.14,1.25-1.47,1.1h0Z"/><path class="cls-7" d="M112.69,232.05c.73.48,3-3.29,2.31-3.78l-1.1-.69c.73.49-1.59,4.26-2.32,3.77Z"/><path class="cls-5" d="M110.52,230.69l1.1.69c.71.48,3-3.14,2.38-3.73a.08.08,0,0,0,0,0l-1.1-.68C113.57,227.44,111.25,231.19,110.52,230.69Z"/><path class="cls-19" d="M139.51,246.14v-.23l-4.29-2.8L112.46,229c0-.07,0-.1,0-.1-.6,1.07-1.5,2.12-1.91,1.84l.5.31.6.38,21.51,13.39h0l6.18,1.45A.2.2,0,0,0,139.51,246.14Z"/><path class="cls-23" d="M105.88,227.8l4.64,2.89c.31.22.94-.33,1.5-1.07.75-1,1.25-2.4.84-2.69h0L108.19,224c-.93-.57-2.32,1.17-2.63,2.53A1.14,1.14,0,0,0,105.88,227.8Z"/><path class="cls-11" d="M107.31,227.35a3.42,3.42,0,0,0,1.15-2.82A.8.8,0,0,0,108,224c-.92-.31-2.19,1.31-2.48,2.6a1.14,1.14,0,0,0,.3,1.23C106.21,228,106.76,227.86,107.31,227.35Z"/><path class="cls-23" d="M121.13,232.09a4.33,4.33,0,0,1,3.75.84c1.21.76,3,.89,3.13,1.49s-.71,1.51-.71,1.51Z"/><path class="cls-22" d="M106.69,250.84c2.59-.24,11-.43,13.69-1a11.19,11.19,0,0,0,6.17-3.46c.39-.45.75-.94,1.14-1.4a3.45,3.45,0,0,1,1-1c.34-.19.7-.32,1-.52a3,3,0,0,0,1.44-2.28,3.43,3.43,0,0,1,.07-.56.68.68,0,0,1,.31-.46,1,1,0,0,1,.58-.05,9,9,0,0,0,2.2.11,4,4,0,0,0,1.55-.52c.36-.23,1-.9.42-1.25-.79-.48-1.57-1-2.19-1.29-3.31-1.56-6.08-1.85-9.72-2.18-1.68-.14-4-.14-5.7-.25-.72-.05-1.48-.19-2.23-.28l-1.1-.68a4.71,4.71,0,0,0-2,.69c-1,.57-2,1.48-3,2-2.48,1.33-7,1.38-10.62,1.24"/></g><g id="Notebook"><polygon class="cls-1" points="167.23 208.62 139.86 221.63 132.72 253.62 135.05 256 160.79 242.91 169.56 211 167.23 208.62"/><polygon class="cls-5" points="142.19 224.01 135.05 256 132.72 253.62 139.86 221.63 142.19 224.01"/><polygon class="cls-7" points="169.9 210.35 141.94 223.65 134.56 256.42 135.29 257.19 161.65 243.81 170.63 211.12 169.9 210.35"/><polygon class="cls-13" points="169.9 210.35 141.94 223.65 134.56 256.42 135.29 257.19 161.65 243.81 170.63 211.12 169.9 210.35"/><polygon class="cls-7" points="142.66 224.42 135.29 257.19 134.56 256.42 141.94 223.65 142.66 224.42"/><polygon class="cls-19" points="142.66 224.42 135.29 257.19 134.56 256.42 141.94 223.65 142.66 224.42"/><polygon class="cls-7" points="170.63 211.12 142.66 224.42 135.29 257.19 161.65 243.81 170.63 211.12"/><g class="cls-24"><path d="M156.41,236c.32.8,3,2.57,6.77,2.25l.65-2.36Z"/></g><path class="cls-25" d="M143.84,225.93c-.11.43.06.64.39.49a1.8,1.8,0,0,0,.8-1.06c.12-.42-.05-.64-.38-.49A1.85,1.85,0,0,0,143.84,225.93Z"/><path class="cls-2" d="M144.27,218.64a2,2,0,0,0-2-.74,2.22,2.22,0,0,0-1.37,1.81,5.4,5.4,0,0,0-.1,1.47l.54-.26a4.8,4.8,0,0,1,.11-1.09,1.7,1.7,0,0,1,1-1.39,1.5,1.5,0,0,1,1.42.59,6.2,6.2,0,0,1,1.41,5.13,2.79,2.79,0,0,1-.26.74,1.33,1.33,0,0,1-.71.65,1,1,0,0,1-.3,0,1.19,1.19,0,0,0-.15.35,1.62,1.62,0,0,0,0,.19l.23,0a1.92,1.92,0,0,0,.41,0,1.59,1.59,0,0,0,.27-.12,2.38,2.38,0,0,0,1.1-1.69A6.86,6.86,0,0,0,144.27,218.64Z"/><path class="cls-25" d="M147.69,224.1c-.12.43.05.64.38.49a1.85,1.85,0,0,0,.81-1.06c.11-.42-.06-.64-.39-.49A1.84,1.84,0,0,0,147.69,224.1Z"/><path class="cls-2" d="M148.11,216.81a2,2,0,0,0-2-.74,2.19,2.19,0,0,0-1.37,1.81,5,5,0,0,0-.11,1.47l.55-.26a5.45,5.45,0,0,1,.1-1.09,1.74,1.74,0,0,1,1-1.39,1.53,1.53,0,0,1,1.43.59,6.23,6.23,0,0,1,1.4,5.13,2.79,2.79,0,0,1-.26.74,1.3,1.3,0,0,1-.71.65,1,1,0,0,1-.3,0,1.19,1.19,0,0,0-.15.35c0,.07,0,.13,0,.19l.24,0a1.83,1.83,0,0,0,.4-.05,1.39,1.39,0,0,0,.28-.12,2.4,2.4,0,0,0,1.09-1.69A6.86,6.86,0,0,0,148.11,216.81Z"/><path class="cls-25" d="M151.53,222.27c-.12.43.06.64.38.49a1.85,1.85,0,0,0,.81-1.06c.12-.42-.05-.64-.38-.49A1.85,1.85,0,0,0,151.53,222.27Z"/><path class="cls-2" d="M152,215a2,2,0,0,0-2-.73,2.2,2.2,0,0,0-1.37,1.81,5,5,0,0,0-.11,1.47l.55-.26a4.8,4.8,0,0,1,.11-1.09,1.7,1.7,0,0,1,1-1.39,1.52,1.52,0,0,1,1.42.59A6.24,6.24,0,0,1,153,220.5a2.79,2.79,0,0,1-.26.74,1.31,1.31,0,0,1-.72.65,1,1,0,0,1-.3,0,1.54,1.54,0,0,0-.15.35,1.68,1.68,0,0,0,0,.18.85.85,0,0,0,.23,0,1.83,1.83,0,0,0,.4,0,1.39,1.39,0,0,0,.28-.12,2.37,2.37,0,0,0,1.09-1.69A6.85,6.85,0,0,0,152,215Z"/><path class="cls-25" d="M155.37,220.44c-.11.43.06.64.39.49a1.8,1.8,0,0,0,.8-1.06c.12-.42-.05-.64-.38-.49A1.85,1.85,0,0,0,155.37,220.44Z"/><path class="cls-2" d="M155.8,213.14a2.06,2.06,0,0,0-2-.73,2.22,2.22,0,0,0-1.37,1.81,5.4,5.4,0,0,0-.1,1.47l.54-.26a4.8,4.8,0,0,1,.11-1.09,1.68,1.68,0,0,1,1-1.39,1.5,1.5,0,0,1,1.42.59,6.2,6.2,0,0,1,1.41,5.13,2.79,2.79,0,0,1-.26.74,1.33,1.33,0,0,1-.71.65,1,1,0,0,1-.3,0,1.19,1.19,0,0,0-.15.35,1.49,1.49,0,0,0,0,.18l.23,0a1.45,1.45,0,0,0,.41-.06,1.53,1.53,0,0,0,.27-.11,2.38,2.38,0,0,0,1.1-1.69A6.89,6.89,0,0,0,155.8,213.14Z"/><path class="cls-25" d="M159.22,218.61c-.12.42.05.64.38.49a1.85,1.85,0,0,0,.81-1.06c.11-.42-.06-.64-.39-.49A1.84,1.84,0,0,0,159.22,218.61Z"/><path class="cls-2" d="M159.64,211.31a2,2,0,0,0-2-.73,2.19,2.19,0,0,0-1.37,1.81,5,5,0,0,0-.11,1.47l.55-.26a5.45,5.45,0,0,1,.1-1.09,1.72,1.72,0,0,1,1-1.39,1.53,1.53,0,0,1,1.43.59,6.23,6.23,0,0,1,1.4,5.13,2.92,2.92,0,0,1-.26.74,1.3,1.3,0,0,1-.71.65,1,1,0,0,1-.3,0,1.19,1.19,0,0,0-.15.35c0,.06,0,.12,0,.18a1,1,0,0,0,.24,0,1.39,1.39,0,0,0,.4-.06,1.36,1.36,0,0,0,.28-.11,2.4,2.4,0,0,0,1.09-1.69A6.89,6.89,0,0,0,159.64,211.31Z"/><path class="cls-25" d="M163.06,216.78c-.12.42.06.64.38.49a1.85,1.85,0,0,0,.81-1.06c.12-.42-.05-.64-.38-.49A1.85,1.85,0,0,0,163.06,216.78Z"/><path class="cls-2" d="M163.48,209.48a2,2,0,0,0-2-.73,2.2,2.2,0,0,0-1.37,1.81A5.4,5.4,0,0,0,160,212l.54-.26a4.8,4.8,0,0,1,.11-1.09,1.68,1.68,0,0,1,1-1.39,1.52,1.52,0,0,1,1.42.59,6.24,6.24,0,0,1,1.41,5.13,2.92,2.92,0,0,1-.26.74,1.31,1.31,0,0,1-.72.65,1,1,0,0,1-.3,0,1.54,1.54,0,0,0-.15.35,1.13,1.13,0,0,0,0,.18.85.85,0,0,0,.23,0,1.39,1.39,0,0,0,.4-.06,1.36,1.36,0,0,0,.28-.11,2.35,2.35,0,0,0,1.09-1.69A6.85,6.85,0,0,0,163.48,209.48Z"/><path class="cls-25" d="M166.9,215c-.11.42.06.64.39.49a1.8,1.8,0,0,0,.8-1.06c.12-.42-.05-.64-.38-.49A1.85,1.85,0,0,0,166.9,215Z"/><path class="cls-2" d="M167.33,207.65a2.06,2.06,0,0,0-2-.73,2.22,2.22,0,0,0-1.37,1.8,5.51,5.51,0,0,0-.1,1.48l.55-.26a5,5,0,0,1,.1-1.1,1.68,1.68,0,0,1,1-1.38,1.5,1.5,0,0,1,1.42.59,6.2,6.2,0,0,1,1.41,5.13,2.92,2.92,0,0,1-.26.74,1.33,1.33,0,0,1-.71.65,1,1,0,0,1-.3,0,1.19,1.19,0,0,0-.15.35,1.16,1.16,0,0,0,0,.18l.23,0a1.45,1.45,0,0,0,.41-.06,1.53,1.53,0,0,0,.27-.11,2.4,2.4,0,0,0,1.1-1.69A6.89,6.89,0,0,0,167.33,207.65Z"/><path class="cls-22" d="M168.86,217.54s-1.22,4.49-1.54,5.63c-.75,2.73-5.95,3.74-8.78,4.09-5.39.67-6,1.84-4.71,5.67,1.2,3.54,4.71,4.87,9.58,4.3a8.83,8.83,0,0,0,6.69-5.84c1.58-4.51.72-9.34,1.35-12S170.23,216,168.86,217.54Z"/></g></g><path class="cls-15" d="M106,344.86V291.79a12.26,12.26,0,0,0-5.52-9.57L49.26,252.67a3.65,3.65,0,0,1,0-6.31l1.25-.71-4.34-26.2a14.64,14.64,0,0,0-6.37-9.51l-4.5-2.6c-3-1.76-5.52-.32-5.52,3.19v23.3L29.87,301a12.26,12.26,0,0,0,5.52,9.57l65.08,37.47C103.51,349.81,106,348.37,106,344.86Z"/><path class="cls-14" d="M121.54,282.81v53.08a2.23,2.23,0,0,1,0,.36,12.33,12.33,0,0,1-5.46,9.18.07.07,0,0,0,0,0l-4.49,2.59a2.06,2.06,0,0,1-.42.21l-.23.12-.06,0a3.67,3.67,0,0,1-.45.17,12.84,12.84,0,0,1-8.13.23,7.17,7.17,0,0,1-1-.36c2.65,1.1,4.7-.39,4.72-3.57h0V291.8a12.24,12.24,0,0,0-5.53-9.57l-10-5.8L49.26,252.66a3.64,3.64,0,0,1,0-6.3l4.58-2.64a12.29,12.29,0,0,1,11,0L106,267.47l10,5.77A12.26,12.26,0,0,1,121.54,282.81Z"/><path class="cls-16" d="M106,291.8v53.06h0c0,3.18-2.07,4.67-4.72,3.57a7.17,7.17,0,0,0,1,.36,12.84,12.84,0,0,0,8.13-.23,3.67,3.67,0,0,0,.45-.17l.06,0,.23-.12a2.06,2.06,0,0,0,.42-.21l4.49-2.59a.07.07,0,0,1,0,0,12.33,12.33,0,0,0,5.46-9.18,2.23,2.23,0,0,0,0-.36V282.81a11.27,11.27,0,0,0-1.62-5.43l-15.55,9A11.36,11.36,0,0,1,106,291.8Z"/><g id="Arm-2" data-name="Arm"><path class="cls-22" d="M99.8,237.66c-7.08-.27-23.19-2.49-23.19-2.49l3.58-31.35c1.82-7.44-3.31-24.53-7.35-27-1.79.53-5.47,1.59-9.53,7.74-2.21,3.36-2.73,9.09-4.27,23-1.09,9.86-1.52,23.38-1.67,32.31-.15,10,3.88,12.67,12.86,13.2,15,.89,30.58-1.61,36.46-2.15"/><path class="cls-7" d="M73.73,176.39c-5.86,1.44-8.16,3.36-11,8.13s-4,19.24-5.32,34.63-.93,24.38-.68,26.95,2.5,6.5,8.88,7a90.89,90.89,0,0,0,12.77.05S77.12,242,81.83,235.85L77,235l4.54-34.24S81.12,183,73.73,176.39Z"/><path class="cls-13" d="M73.73,176.39c-5.86,1.44-8.16,3.36-11,8.13s-4,19.24-5.32,34.63-.93,24.38-.68,26.95,2.5,6.5,8.88,7a90.89,90.89,0,0,0,12.77.05S77.12,242,81.83,235.85L77,235l4.54-34.24S81.12,183,73.73,176.39Z"/><path class="cls-19" d="M77,235a20.61,20.61,0,0,0-10.73,2.11s2.29-3.72,11-4.46Z"/></g></g></g><g id="Line"><g id="Lines"><g id="Lines-2" data-name="Lines"><path class="cls-14" d="M94.76,109a4,4,0,0,0,3-6.16c-.91-1.28-2.6-1.78-4-2.38a5.7,5.7,0,0,1-2.25-1.36c-1.37-1.76.48-3.47,1.82-4.38,1.67-1.15,3.67-1.91,5-3.55a6.56,6.56,0,0,0,1.36-4.64c-.36-4-3.75-5.76-7.07-7.2-4.66-2-9.27-4-11.39-8.94C79,65,81.88,58.06,86.69,55a12.66,12.66,0,0,1,16.07,2.3c4.09,4.39,5.75,11.38,3.3,17-4.92,11.26-24.28,8.07-27.42-3a17.38,17.38,0,0,1,4.54-16.75,16.15,16.15,0,0,1,14-4,15.91,15.91,0,0,1,11.94,11.61,27.24,27.24,0,0,1,1,9,13.07,13.07,0,0,1-4.41,8.28A17.89,17.89,0,0,1,77,73.84c-3.59-8.33-1.22-20.13,7.47-24.36,6-2.95,12.58-3.49,18.3.48a24.09,24.09,0,0,1,9.79,13.29,17.92,17.92,0,0,1-4.11,17,20.82,20.82,0,0,1-14,6.17,20.4,20.4,0,0,1-13.94-4.18c-4.53-3.66-7-9.51-7.51-15.22C72,56.34,78.11,47.53,87.8,43.32c10.23-4.43,22-3.53,32.54-.74,11.13,2.93,21.79,7.78,31.89,13.25,5.34,2.89,10.55,6,16,8.59a149.24,149.24,0,0,0,15.16,6.27c9.3,3.24,19,5.52,28.86,5.52a71.52,71.52,0,0,0,27.41-5,45.79,45.79,0,0,0,20.12-15.83c2.34-3.36,4.42-6.91,4.15-11.15-.22-3.66-2.52-6.5-6.41-6.22-4.64.34-7.2,4.67-9.23,8.33l.58.13c-1.58-2.86-3.31-6-6.27-7.63-2.25-1.24-5.41-1.46-7.49.24-4.76,3.9-1.36,11.67,1.52,15.59,6.78,9.24,18.12,14.7,28.72,18.19,15.2,5,31.72,7,47.5,3.78,13.61-2.74,26-9.07,38.13-15.6,7.19-3.88,14.33-7.94,21.84-11.16,8.08-3.47,17.33-6.19,26-3.39,7.36,2.37,14.3,10.1,12.21,18.31-1.77,6.95-10.4,11.88-16.76,7.49-5.41-3.73-14.45-16.38-4.27-20,6.43-2.3,14.9,1.15,19.7,5.45,2.82,2.53,5,6.2,3.36,10s-5.91,5.36-9.66,5.52c-8,.34-16.34-5.29-16.49-13.82a12,12,0,0,1,4.36-9.73c3.09-2.42,7.16-3,11-2.56,7.59.85,15.71,5.44,19.4,12.27,3.48,6.45,2.17,15.85-5,19.23-6.41,3.05-15.15,1.69-21.51-.87s-12.32-7.48-14.3-14.35c-2.22-7.7,1.81-16.71,10.81-16.06,8.38.61,15.7,8.12,17.35,16.14,1.52,7.38-2.34,16-9.78,18.47-6.85,2.27-16-2-16.15-9.83-.14-7.09,7.19-14,14-9.63,3,1.9,5.1,5.57,4.31,9.14s-5.13,7-8.6,4.41a7.93,7.93,0,0,1-2.52-7.91c.9-3.58,4.66-5.49,8.09-5.82a15.89,15.89,0,0,1,10.65,2.84c1.73,1.3,3,3.46,1.64,5.51-1.81,2.66-4.5.25-5.1-2a7,7,0,0,1,3.49-7.91c3.67-1.68,7.66,1.54,8.2,5.21.25,1.69-.19,3.65-2,4.26a4.19,4.19,0,0,1-4.74-1.77c-2.07-3.81,3.9-7.12,6.88-5,3.75,2.62,2.25,8.21-1.32,10.08a8.2,8.2,0,0,1-10-2,10.59,10.59,0,0,1-1.93-10.34,11.7,11.7,0,0,1,7.23-6.64c7.7-2.67,16.76,2.84,17,11.24.19,7.14-5.78,13.74-12.73,14.81-7.84,1.2-16-3.72-19.58-10.66A13.72,13.72,0,0,1,395,59.76c1.39-4.28,5.88-5.88,10.06-5.37a14,14,0,0,1,11.6,17.93c-1.18,3.88-3.9,6.25-6.8,8.87-2.47,2.24-4.69,5-4.42,8.51.21,2.78,2.05,4.26,4.48,5.23,1.23.49,3.63,1,3.65,2.72s-2,2.29-3.24,2.81c-2.13.9-4.34,2-4.05,4.71a4.48,4.48,0,0,0,4.19,4.09c.8,0,.36-1.09-.27-1.1-2.63-.08-3.63-3.58-1.83-5.26,1.29-1.2,3.2-1.47,4.67-2.37,2.52-1.55,1.86-4.34-.53-5.6-1.78-.94-4.12-1.17-5.27-3-1.42-2.22-.48-5.31,1-7.27C411,81,415.15,79,417.07,74.63a15.25,15.25,0,0,0-8-20.16c-3.74-1.6-8.7-1.93-12.15.56-2.91,2.1-3.78,5.77-3.44,9.18.78,8.05,7.74,14.89,15.33,17a16.38,16.38,0,0,0,19.3-8.59,13.79,13.79,0,0,0-7.38-18.77C414,51,404.62,54.35,402.91,62c-1.52,6.82,4.1,14.78,11.52,13.35,3.49-.67,6.37-3.42,6.31-7.12-.06-3-2.07-6.14-5.26-6.46-2.9-.3-6.15,2-6.17,5.05,0,2.75,2.76,4.73,5.35,4.67,3.35-.09,4.3-3.47,3.5-6.26-.85-3-3.6-5.68-6.79-5.87-6.45-.38-9.4,9.32-4.22,12.91,2.72,1.88,5.64-.9,5.17-3.85-.56-3.51-4.7-5.46-7.72-6.36-6.28-1.89-16.09.16-15.35,8.48a8.58,8.58,0,0,0,4.12,6.85c3.05,1.6,6.53-.14,8.18-2.93C405.24,68.2,399,60,392.29,60.1c-7.28.08-11.74,8.81-9.44,15.2,2.49,6.89,11.32,10,17.87,7.27,7.68-3.23,11.08-12.42,9-20.16-2.13-7.92-9.37-15.08-17.7-16a10.85,10.85,0,0,0-10.42,4.44A14.84,14.84,0,0,0,379.74,62c1.53,7.59,7.64,13.25,14.51,16.26a35.39,35.39,0,0,0,11.31,2.81c4.24.33,9,.11,12.73-2.1,6.83-4,7.62-13.58,4-20-4-7.16-12.44-12-20.49-12.79-4-.39-8.33.33-11.48,3a12.76,12.76,0,0,0-4.2,10.2c.31,8.33,7.75,14.2,15.7,14.73,3.69.25,7.8-.69,10.44-3.44a8.14,8.14,0,0,0,1.17-9.53C410,54.59,401,50.63,393.81,50.72c-3.18,0-6.53,1-8.2,4-2.13,3.72-.37,8,1.85,11.25s5.48,7.26,9.5,8.53a11.16,11.16,0,0,0,9.65-1.82c6.77-4.74,7-13.57,2.27-19.89-5.69-7.68-15.59-9.34-24.5-7.61-10.32,2-19.84,7.55-29,12.49-7.6,4.09-15.16,8.3-23.07,11.76a92.42,92.42,0,0,1-25.46,7.34,91.2,91.2,0,0,1-31-1.83,87.37,87.37,0,0,1-26.15-9.84c-5.36-3.2-10.69-7.36-13.91-12.82C233.66,48.63,231.6,41,236.94,39s9.21,3.69,11.42,7.7c.11.21.41.42.57.13,1.51-2.73,3.17-5.76,6-7.26,2.54-1.32,6.33-1.16,7.71,1.72,2.49,5.21-1.56,11.17-4.63,15.13-6.09,7.88-14.81,13.14-24.26,16a73.87,73.87,0,0,1-32.11,2.22C189.62,72.79,177.9,68.4,167,63.05c-6.1-3-11.87-6.52-17.9-9.64a170.86,170.86,0,0,0-17.34-7.83c-10.29-3.94-21.5-6.89-32.62-5.9-10.21.91-21.11,6-25.15,16-3.69,9.11-1.27,21.41,6.74,27.51s20.38,5.13,27.53-1.73c8.08-7.74,6.53-20.19-.57-28-3.73-4.1-8.73-7.41-14.46-7.16a19.47,19.47,0,0,0-12.61,5.18,20.51,20.51,0,0,0-2.54,25.26,18.6,18.6,0,0,0,28.15,3c4.14-3.91,5-8.82,4-14.25-.85-5.13-2.63-9.68-6.93-12.88C94.93,46.42,82.65,50.33,78.93,60c-1.79,4.62-2,10.45.75,14.76,2.84,4.51,8.41,6.86,13.57,7.14,4.89.26,9.74-1.3,12.4-5.63,2.49-4.07,2.47-9.35.81-13.72-1.78-4.72-5.71-8.79-10.78-9.82a13.08,13.08,0,0,0-13.36,5.93c-2.49,3.95-3,9.22-.75,13.36s6.71,6,11,7.87c2.36,1,5.11,2.16,6.24,4.65,1.46,3.26-.16,6.34-3,8.1-2,1.24-7.07,3.86-4.41,6.93,1.18,1.35,3.25,1.66,4.75,2.52a3.18,3.18,0,0,1,1.64,4.09,3.4,3.4,0,0,1-3.09,2.28c-.25,0-.17.57.09.56Z"/></g><path class="cls-14" d="M417.17,64.16a6.51,6.51,0,0,0,2.1,3.68,7.55,7.55,0,0,0,3.83,1.57c3.22.45,7.36-.23,9.21-3.18a12.27,12.27,0,0,0,1.51-5.64,19.86,19.86,0,0,0-.5-5.75,19.22,19.22,0,0,0-5.27-9.36c-4.13-4-10.84-7-16.57-5a10.57,10.57,0,0,0-6.51,6.8,8.11,8.11,0,0,0-.13,5.15,10.67,10.67,0,0,0,2.51,3.92,15.11,15.11,0,0,0,8.58,4.42c3.37.45,7.26-.94,8.39-4.43S424,48.61,422,45.65A17.17,17.17,0,0,0,401.63,39a17.55,17.55,0,0,0-8.23,6.44c-1.89,2.84-2.72,6.47-1.19,9.66a9.67,9.67,0,0,0,8.68,5.31c3.67,0,7.74-1.78,9.56-5.08s.15-6.92-3-8.47c-3.37-1.64-7.58-.33-10.12,2.2a9.87,9.87,0,0,0-2.86,8.74,9.16,9.16,0,0,0,2.35,4.41c.37.39,1.19.06.75-.41a8.19,8.19,0,0,1-1.77-8.52,9.65,9.65,0,0,1,6.61-6.06,6.82,6.82,0,0,1,5.11.59,5.55,5.55,0,0,1,2.69,3.79c.58,3.56-2.9,6.36-5.9,7.37a9.27,9.27,0,0,1-9.6-1.87A8.07,8.07,0,0,1,393,48.3a15.11,15.11,0,0,1,6.21-7.08,16,16,0,0,1,24.21,10.37,8,8,0,0,1-.48,5.25,6.07,6.07,0,0,1-4,2.91c-2.83.71-5.9-.33-8.3-1.83s-4.65-3.77-5.14-6.6c-.53-3.14,1.28-6.68,3.71-8.6,4.5-3.55,10.85-1.87,15.26,1A18.81,18.81,0,0,1,433.07,60a13.55,13.55,0,0,1-1,5.12,6.13,6.13,0,0,1-4.13,3.32c-2.59.73-6,.8-8.29-.88a6.48,6.48,0,0,1-2.26-3.48c-.06-.2-.24-.07-.2.1Z"/></g></g></g></svg>