<svg xmlns="http://www.w3.org/2000/svg" viewBox="0 0 338.88 392.21" width="338.8800048828125" height="392.2099914550781"><defs><style>.cls-1{stroke:#f3cca5;stroke-miterlimit:10.43;stroke-width:0.09px;}</style></defs><title>new_logo_black</title><g id="Layer_2" data-name="Layer 2"><g id="Layer_1-2" data-name="Layer 1"><path class="cls-1 svg-elem-1" d="M143.87,15c8.45-5.09,17.28-9.55,25.57-14.92,24.8,14.82,50,28.92,74.95,43.54,31.43,18,62.68,36.36,94.17,54.24.47,2.22.17,4.52.24,6.78q0,75,0,150c-.17,13.25.35,26.56-.24,39.77-46.48,26.56-92.72,53.57-139.15,80.24-9.95,5.89-20.13,11.43-29.95,17.54a119.91,119.91,0,0,0-13-7.47c-10.21-6.18-20.67-12-30.94-18.07-.83-.76-1.94-.43-2.91-.32-2-3.4-6.09-4.57-9.28-6.54-13.27-8.18-27.18-15.27-40.35-23.61a75.47,75.47,0,0,1-11.49-6.57c-5.85-3-11.33-6.74-17.14-9.85-1.43-.84-3-2.19-4.74-1.39-1.8-3.24-5.61-4.42-8.63-6.22A185.72,185.72,0,0,0,14.73,303c-4.59-3.22-9.64-5.62-14.4-8.57-.51-2.55-.16-5.19-.24-7.77q0-93.53,0-187c.06-.43.19-1.3.25-1.74C48.27,70.37,96,42.48,143.87,15Zm17.69,8.85c-12.08,7.34-24.61,13.9-36.68,21.29-4.89,2.28-9,6-14,8Q70.63,76.4,30.39,99.61c-4.52,2.82-9.46,5-13.67,8.28q.16,88.21,0,176.44c3.83,3,8.26,5.07,12.43,7.52,46.21,26.83,92.56,53.42,138.76,80.27,2,.72,4-.33,5.61-1.49q58.29-33.7,116.59-67.4c10.51-6.6,21.78-12,32.05-18.9q-.15-88.21,0-176.44c-10.45-7.09-22-12.48-32.61-19.28-.83-.7-1.95-.44-2.91-.32-1.7-3-5.19-4.1-7.9-5.91-21.26-12-42.16-24.57-63.43-36.54-10-5.7-19.75-12-30.05-17.17C180.67,25.52,175.71,23,171,20.1,167.28,19,164.69,22.61,161.56,23.83Z"></path><path class="cls-1 svg-elem-2" d="M157.32,114.31c3.33-1.2,6.94-.8,10.31-1.79,2.65-.93,5.2.83,7.87.71,12.77,1,23.42,9.55,31.15,19.21,4.1,5.65,7.07,12,10.07,18.25.06,1.53.43,3.24-.3,4.66-8.52,14-16.4,28.3-24.9,42.27,3.06,4.66,6.17,9.5,7,15.13.51,4.58.54,9.36-1.06,13.75-2.89,8.09-6.66,15.82-9.67,23.86,2.81,4.72,6.71,8.59,9.84,13.09a7.7,7.7,0,0,1-1.41,10A42.8,42.8,0,0,1,175.69,279c-1.77.37-3.26,1.57-5.05,1.84-2.62.14-5-1.05-7.45-1.83a43,43,0,0,1-19.91-5.2c-3-1.45-3.58-5.22-3.19-8.19,2.35-5.15,7-8.79,9.85-13.61a9.84,9.84,0,0,0-.38-5.66c-2.86-6.86-6-13.61-8.42-20.65-3.08-9.68,0-20.26,6.14-28.07-2.85-3-3.57-7.48-6.3-10.64-3.08-3.54-4-8.36-7-12-3.22-3.74-4.2-8.84-7.44-12.57-1.94-2.37-3-5.27-4.43-7.91-.53-2.66.52-5.15,1.62-7.5,1.62-4.7,4.56-8.76,7.07-13C137.56,125.24,146.14,116.91,157.32,114.31Zm5.65,7.84c-2.58-.23-4.93,1.07-7.33,1.81-9,4-16.19,11.38-20.65,20.11-1.38,3.14-4.22,6.31-3,10,2.69,4.37,5.07,8.92,7.83,13.25,1.66,2.43,2.46,5.4,4.54,7.55-2.84-8.75-5.11-17.68-8.13-26.37-.43-1.7-.46-3.78,1.22-4.82,1.85-2.65,5.78-1.47,6.87,1.27,2.64,7.29,4.42,14.84,6.71,22.24,1.77,4.45,2.2,9.35,4.36,13.66-1.89-11.13-3.44-22.34-4.81-33.53-.67-5.85-2.37-11.71-1.43-17.64,1.85-.58,3.92-2.26,5.76-.68,1.95.36,1.87,2.46,2.44,4,1.31,10.24,2.82,20.49,4.35,30.71.6,8.64,2.84,17.12,2.95,25.82l.72,0c-.67-21.19-.16-42.41-.26-63.6,1.36-1,2.4-2.87,4.31-2.62,1.9-.25,2.95,1.67,4.32,2.62-.1,21.2.36,42.41-.25,63.6l.73,0c-.06-7.52,1.47-14.92,2.53-22.31,1-12.16,3.88-24.14,4.38-36.32,1.87-2.63,6.29-4,8.46-1a22.62,22.62,0,0,1-.5,9.3c-1.45,14.29-4.09,28.45-5.49,42.74,3.7-12,6.69-24.3,10.64-36.25.46-2,2.75-2.42,4.18-3.51A8.46,8.46,0,0,1,203,146.6c-2.85,9.39-5.62,18.84-8.08,28.35,3.65-6.59,7.4-13.12,11.17-19.64,1.57-1.84,1.35-4.62.18-6.6-4.33-9.27-10.69-18-19.86-23-4.75-3.31-10.61-3.74-16.12-4.79C167.69,120.38,165.5,122.36,163,122.15Zm-10,82.67c-1.72,3.13-3.95,6.2-4.16,9.89-.91,11.83,7.43,21.53,10.13,32.56a29,29,0,0,0,12.32,2c.94,1.35,2.88,2.37,2.62,4.28.31,1.92-1.56,3-2.67,4.16-4.59,1-9.12-.58-13.44-2a50.16,50.16,0,0,1-8.5,10.89c2.46,2.64,6.38,2.36,9.63,3.27,5,.21,9.94,2.34,14.91.82,5.23-1.2,11.51-.47,15.84-4.08-4.59-4.53-8.75-9.81-10.44-16.15.81-5.49,3.19-10.51,5.59-15.44,2.14-6,5.72-11.88,5.36-18.49-.11-1.5.38-3.51-1.36-4.24.89-3-1.85-5.16-3.09-7.6a28.06,28.06,0,0,1-12,2.29c-2.49,1-5.4,2.19-7.79.24C161.54,206.89,157.06,206.59,153,204.82Z"></path></g></g></svg>